<?xml version="1.0" standalone="no"?>
<!DOCTYPE svg PUBLIC "-//W3C//DTD SVG 20010904//EN"
 "http://www.w3.org/TR/2001/REC-SVG-20010904/DTD/svg10.dtd">
<svg version="1.0" xmlns="http://www.w3.org/2000/svg"
 width="700.000000pt" height="700.000000pt" viewBox="0 0 700.000000 700.000000"
 preserveAspectRatio="xMidYMid meet">
<metadata>
Created by potrace 1.14, written by Peter Selinger 2001-2017
</metadata>
<g transform="translate(0.000000,700.000000) scale(0.100000,-0.100000)"
fill="#000000" stroke="none">
<path d="M520 6993 c-50 -8 -126 -36 -190 -69 -156 -81 -273 -234 -316 -414
-11 -45 -13 -600 -13 -3010 0 -2887 1 -2957 19 -3029 63 -239 252 -415 495
-460 42 -8 907 -11 3000 -10 2858 0 2942 1 3013 19 222 58 389 225 451 450
l21 75 0 2955 c0 2652 -2 2961 -16 3015 -53 203 -177 352 -359 433 -124 55 65
52 -3130 50 -1622 0 -2961 -3 -2975 -5z m3290 -317 c25 -4 95 -14 155 -22 469
-64 976 -266 1365 -543 108 -77 131 -94 144 -106 6 -5 49 -42 96 -81 116 -98
242 -224 365 -364 64 -73 208 -272 276 -381 67 -108 176 -319 228 -439 119
-276 209 -642 238 -962 10 -106 9 -472 0 -563 -15 -133 -18 -160 -28 -215 -5
-30 -11 -68 -14 -85 -3 -16 -8 -41 -11 -55 -3 -14 -8 -36 -10 -50 -19 -105
-133 -471 -155 -495 -5 -5 -9 -14 -9 -21 0 -6 -12 -38 -27 -70 -15 -33 -28
-61 -28 -64 -2 -19 -130 -252 -193 -353 -213 -339 -474 -621 -805 -870 -184
-138 -463 -299 -639 -368 -29 -11 -66 -27 -83 -34 -99 -46 -422 -140 -565
-165 -252 -45 -364 -55 -615 -55 -230 1 -389 14 -550 45 -27 5 -61 11 -75 14
-139 23 -417 108 -585 178 -896 374 -1574 1127 -1845 2048 -17 57 -33 117 -36
134 -3 16 -7 32 -9 36 -2 4 -7 22 -10 41 -3 19 -10 52 -15 74 -5 22 -11 58
-15 80 -3 22 -10 67 -15 100 -24 164 -34 552 -17 720 11 109 36 283 51 350 1
6 8 37 15 70 18 86 55 215 94 330 320 933 1065 1674 2000 1986 141 47 351 103
434 114 21 3 47 8 59 10 12 3 36 7 55 9 19 3 50 7 70 10 19 3 71 8 115 12 43
3 80 8 82 9 6 6 468 -3 512 -9z"/>
<path d="M1688 5669 c-15 -10 -15 -4163 0 -4181 8 -10 106 -13 454 -13 243 1
449 4 456 8 9 7 12 437 12 2098 0 1664 -3 2089 -12 2090 -48 5 -902 3 -910 -2z"/>
<path d="M3035 5669 c-34 -9 -66 -36 -93 -77 -16 -25 -17 -141 -18 -2001 -1
-1087 3 -1989 7 -2005 12 -40 65 -94 103 -102 74 -17 44 -33 581 300 149 92
286 178 305 190 19 13 112 71 205 128 287 178 615 381 723 449 56 35 110 69
120 74 9 6 57 35 105 65 48 30 95 60 105 65 9 6 63 39 120 75 56 36 115 72
130 81 49 29 696 431 732 454 19 13 54 34 77 49 80 49 110 100 106 179 -3 63
-35 99 -154 175 -63 40 -120 76 -128 79 -8 4 -37 21 -65 40 -51 33 -953 595
-1003 624 -34 20 -924 573 -973 604 -19 13 -138 87 -265 165 -126 79 -313 195
-415 258 -169 105 -237 142 -265 141 -5 -1 -24 -5 -40 -10z"/>
</g>
</svg>
