<svg width="186" height="45" viewBox="0 0 186 45" fill="none" xmlns="http://www.w3.org/2000/svg">
<path fill-rule="evenodd" clip-rule="evenodd" d="M4 0C1.79077 0 0 1.79089 0 4V41C0 43.2091 1.79077 45 4 45H41C43.2092 45 45 43.2091 45 41V4C45 1.79089 43.2092 0 41 0H4ZM22.5 43C33.8218 43 43 33.8218 43 22.5C43 11.1782 33.8218 2 22.5 2C11.1782 2 2 11.1782 2 22.5C2 33.8218 11.1782 43 22.5 43Z" fill="#91C0AC"/>
<rect x="10.7856" y="8.51196" width="6" height="27" rx="1" fill="#91C0AC"/>
<path d="M40.2913 21.0909C40.9504 21.5002 40.9504 22.5237 40.2913 22.9331L20.2688 35.3679C19.6096 35.7773 18.7856 35.2655 18.7856 34.4468L18.7856 9.57714C18.7856 8.75839 19.6096 8.24667 20.2688 8.65604L40.2913 21.0909Z" fill="#91C0AC"/>
<path d="M54.2 11.252C53.42 11.252 52.8307 11.4253 52.432 11.772C52.0333 12.1187 51.834 12.63 51.834 13.306V14.086H55.799V15.516H51.834V19H50.144V13.306C50.144 12.2053 50.495 11.343 51.197 10.719C51.9077 10.0863 52.8827 9.77 54.122 9.77C54.642 9.77 55.1273 9.82633 55.578 9.939C56.0287 10.0517 56.423 10.2163 56.761 10.433L56.228 11.811C55.6907 11.4383 55.0147 11.252 54.2 11.252ZM60.987 19.091C60.285 19.091 59.6523 18.9393 59.089 18.636C58.5257 18.3327 58.0837 17.9123 57.763 17.375C57.451 16.829 57.295 16.2137 57.295 15.529C57.295 14.8443 57.451 14.2333 57.763 13.696C58.0837 13.1587 58.5257 12.7383 59.089 12.435C59.6523 12.1317 60.285 11.98 60.987 11.98C61.6977 11.98 62.3347 12.1317 62.898 12.435C63.4613 12.7383 63.899 13.1587 64.211 13.696C64.5317 14.2333 64.692 14.8443 64.692 15.529C64.692 16.2137 64.5317 16.829 64.211 17.375C63.899 17.9123 63.4613 18.3327 62.898 18.636C62.3347 18.9393 61.6977 19.091 60.987 19.091ZM60.987 17.7C61.585 17.7 62.079 17.5007 62.469 17.102C62.859 16.7033 63.054 16.179 63.054 15.529C63.054 14.879 62.859 14.3547 62.469 13.956C62.079 13.5573 61.585 13.358 60.987 13.358C60.389 13.358 59.895 13.5573 59.505 13.956C59.1237 14.3547 58.933 14.879 58.933 15.529C58.933 16.179 59.1237 16.7033 59.505 17.102C59.895 17.5007 60.389 17.7 60.987 17.7ZM73.2269 12.058V19H71.6799V18.116C71.4199 18.428 71.0949 18.6707 70.7049 18.844C70.3149 19.0087 69.8946 19.091 69.4439 19.091C68.5166 19.091 67.7843 18.8353 67.2469 18.324C66.7183 17.804 66.4539 17.037 66.4539 16.023V12.058H68.0789V15.802C68.0789 16.426 68.2176 16.894 68.4949 17.206C68.7809 17.5093 69.1839 17.661 69.7039 17.661C70.2846 17.661 70.7439 17.4833 71.0819 17.128C71.4286 16.764 71.6019 16.244 71.6019 15.568V12.058H73.2269ZM79.5536 11.98C80.4289 11.98 81.1309 12.2357 81.6596 12.747C82.1882 13.2583 82.4526 14.0167 82.4526 15.022V19H80.8276V15.23C80.8276 14.6233 80.6846 14.1683 80.3986 13.865C80.1126 13.553 79.7052 13.397 79.1766 13.397C78.5786 13.397 78.1062 13.579 77.7596 13.943C77.4129 14.2983 77.2396 14.814 77.2396 15.49V19H75.6146V12.058H77.1616V12.955C77.4302 12.6343 77.7682 12.3917 78.1756 12.227C78.5829 12.0623 79.0422 11.98 79.5536 11.98ZM91.6364 9.354V19H90.0764V18.103C89.8078 18.4323 89.4741 18.6793 89.0754 18.844C88.6854 19.0087 88.2521 19.091 87.7754 19.091C87.1081 19.091 86.5058 18.9437 85.9684 18.649C85.4398 18.3543 85.0238 17.9383 84.7204 17.401C84.4171 16.855 84.2654 16.231 84.2654 15.529C84.2654 14.827 84.4171 14.2073 84.7204 13.67C85.0238 13.1327 85.4398 12.7167 85.9684 12.422C86.5058 12.1273 87.1081 11.98 87.7754 11.98C88.2348 11.98 88.6551 12.058 89.0364 12.214C89.4178 12.37 89.7428 12.604 90.0114 12.916V9.354H91.6364ZM87.9704 17.7C88.3604 17.7 88.7114 17.6133 89.0234 17.44C89.3354 17.258 89.5824 17.0023 89.7644 16.673C89.9464 16.3437 90.0374 15.9623 90.0374 15.529C90.0374 15.0957 89.9464 14.7143 89.7644 14.385C89.5824 14.0557 89.3354 13.8043 89.0234 13.631C88.7114 13.449 88.3604 13.358 87.9704 13.358C87.5804 13.358 87.2294 13.449 86.9174 13.631C86.6054 13.8043 86.3584 14.0557 86.1764 14.385C85.9944 14.7143 85.9034 15.0957 85.9034 15.529C85.9034 15.9623 85.9944 16.3437 86.1764 16.673C86.3584 17.0023 86.6054 17.258 86.9174 17.44C87.2294 17.6133 87.5804 17.7 87.9704 17.7ZM100.808 12.058V19H99.2612V18.103C98.9926 18.4323 98.6589 18.6793 98.2602 18.844C97.8702 19.0087 97.4369 19.091 96.9602 19.091C96.2842 19.091 95.6776 18.9437 95.1402 18.649C94.6116 18.3543 94.1956 17.9383 93.8922 17.401C93.5976 16.8637 93.4502 16.2397 93.4502 15.529C93.4502 14.8183 93.5976 14.1987 93.8922 13.67C94.1956 13.1327 94.6116 12.7167 95.1402 12.422C95.6776 12.1273 96.2842 11.98 96.9602 11.98C97.4109 11.98 97.8226 12.058 98.1952 12.214C98.5766 12.37 98.9059 12.5997 99.1832 12.903V12.058H100.808ZM97.1422 17.7C97.7402 17.7 98.2342 17.5007 98.6242 17.102C99.0142 16.7033 99.2092 16.179 99.2092 15.529C99.2092 14.879 99.0142 14.3547 98.6242 13.956C98.2342 13.5573 97.7402 13.358 97.1422 13.358C96.5442 13.358 96.0502 13.5573 95.6602 13.956C95.2789 14.3547 95.0882 14.879 95.0882 15.529C95.0882 16.179 95.2789 16.7033 95.6602 17.102C96.0502 17.5007 96.5442 17.7 97.1422 17.7ZM107.094 18.623C106.904 18.779 106.67 18.896 106.392 18.974C106.124 19.052 105.838 19.091 105.534 19.091C104.772 19.091 104.182 18.8917 103.766 18.493C103.35 18.0943 103.142 17.5137 103.142 16.751V10.524H104.767V12.11H106.626V13.41H104.767V16.712C104.767 17.05 104.85 17.31 105.014 17.492C105.188 17.6653 105.426 17.752 105.729 17.752C106.093 17.752 106.397 17.6567 106.639 17.466L107.094 18.623ZM108.698 12.058H110.323V19H108.698V12.058ZM109.517 10.914C109.222 10.914 108.975 10.823 108.776 10.641C108.576 10.4503 108.477 10.2163 108.477 9.939C108.477 9.66167 108.576 9.432 108.776 9.25C108.975 9.05933 109.222 8.964 109.517 8.964C109.811 8.964 110.058 9.055 110.258 9.237C110.457 9.41033 110.557 9.63133 110.557 9.9C110.557 10.186 110.457 10.4287 110.258 10.628C110.067 10.8187 109.82 10.914 109.517 10.914ZM115.835 19.091C115.133 19.091 114.501 18.9393 113.937 18.636C113.374 18.3327 112.932 17.9123 112.611 17.375C112.299 16.829 112.143 16.2137 112.143 15.529C112.143 14.8443 112.299 14.2333 112.611 13.696C112.932 13.1587 113.374 12.7383 113.937 12.435C114.501 12.1317 115.133 11.98 115.835 11.98C116.546 11.98 117.183 12.1317 117.746 12.435C118.31 12.7383 118.747 13.1587 119.059 13.696C119.38 14.2333 119.54 14.8443 119.54 15.529C119.54 16.2137 119.38 16.829 119.059 17.375C118.747 17.9123 118.31 18.3327 117.746 18.636C117.183 18.9393 116.546 19.091 115.835 19.091ZM115.835 17.7C116.433 17.7 116.927 17.5007 117.317 17.102C117.707 16.7033 117.902 16.179 117.902 15.529C117.902 14.879 117.707 14.3547 117.317 13.956C116.927 13.5573 116.433 13.358 115.835 13.358C115.237 13.358 114.743 13.5573 114.353 13.956C113.972 14.3547 113.781 14.879 113.781 15.529C113.781 16.179 113.972 16.7033 114.353 17.102C114.743 17.5007 115.237 17.7 115.835 17.7ZM125.293 11.98C126.169 11.98 126.871 12.2357 127.399 12.747C127.928 13.2583 128.192 14.0167 128.192 15.022V19H126.567V15.23C126.567 14.6233 126.424 14.1683 126.138 13.865C125.852 13.553 125.445 13.397 124.916 13.397C124.318 13.397 123.846 13.579 123.499 13.943C123.153 14.2983 122.979 14.814 122.979 15.49V19H121.354V12.058H122.901V12.955C123.17 12.6343 123.508 12.3917 123.915 12.227C124.323 12.0623 124.782 11.98 125.293 11.98Z" fill="#91C0AC"/>
<path d="M53.043 35.13C52.341 35.13 51.6607 35.0303 51.002 34.831C50.352 34.6317 49.8363 34.3673 49.455 34.038L50.04 32.725C50.4127 33.0197 50.8677 33.2623 51.405 33.453C51.951 33.635 52.497 33.726 53.043 33.726C53.719 33.726 54.2217 33.6177 54.551 33.401C54.889 33.1843 55.058 32.8983 55.058 32.543C55.058 32.283 54.9627 32.0707 54.772 31.906C54.59 31.7327 54.356 31.5983 54.07 31.503C53.784 31.4077 53.394 31.2993 52.9 31.178C52.2067 31.0133 51.6433 30.8487 51.21 30.684C50.7853 30.5193 50.417 30.2637 50.105 29.917C49.8017 29.5617 49.65 29.085 49.65 28.487C49.65 27.9843 49.7843 27.5293 50.053 27.122C50.3303 26.706 50.742 26.3767 51.288 26.134C51.8427 25.8913 52.5187 25.77 53.316 25.77C53.8707 25.77 54.4167 25.8393 54.954 25.978C55.4913 26.1167 55.955 26.316 56.345 26.576L55.812 27.889C55.4133 27.655 54.9973 27.4773 54.564 27.356C54.1307 27.2347 53.7103 27.174 53.303 27.174C52.6357 27.174 52.1373 27.2867 51.808 27.512C51.4873 27.7373 51.327 28.0363 51.327 28.409C51.327 28.669 51.418 28.8813 51.6 29.046C51.7907 29.2107 52.029 29.3407 52.315 29.436C52.601 29.5313 52.991 29.6397 53.485 29.761C54.161 29.917 54.7157 30.0817 55.149 30.255C55.5823 30.4197 55.9507 30.6753 56.254 31.022C56.566 31.3687 56.722 31.8367 56.722 32.426C56.722 32.9287 56.5833 33.3837 56.306 33.791C56.0373 34.1983 55.6257 34.5233 55.071 34.766C54.5163 35.0087 53.8403 35.13 53.043 35.13ZM62.3368 34.623C62.1461 34.779 61.9121 34.896 61.6348 34.974C61.3661 35.052 61.0801 35.091 60.7768 35.091C60.0141 35.091 59.4248 34.8917 59.0088 34.493C58.5928 34.0943 58.3848 33.5137 58.3848 32.751V26.524H60.0098V28.11H61.8688V29.41H60.0098V32.712C60.0098 33.05 60.0921 33.31 60.2568 33.492C60.4301 33.6653 60.6684 33.752 60.9718 33.752C61.3358 33.752 61.6391 33.6567 61.8818 33.466L62.3368 34.623ZM66.9484 33.713C67.7024 33.713 68.3308 33.4617 68.8334 32.959L69.6914 33.96C69.3881 34.3327 68.9981 34.6143 68.5214 34.805C68.0448 34.9957 67.5074 35.091 66.9094 35.091C66.1468 35.091 65.4751 34.9393 64.8944 34.636C64.3138 34.3327 63.8631 33.9123 63.5424 33.375C63.2304 32.829 63.0744 32.2137 63.0744 31.529C63.0744 30.853 63.2261 30.2463 63.5294 29.709C63.8414 29.163 64.2661 28.7383 64.8034 28.435C65.3494 28.1317 65.9648 27.98 66.6494 27.98C67.2994 27.98 67.8888 28.123 68.4174 28.409C68.9548 28.6863 69.3794 29.0893 69.6914 29.618C70.0034 30.138 70.1594 30.749 70.1594 31.451L64.8424 32.491C65.0071 32.8897 65.2714 33.193 65.6354 33.401C65.9994 33.609 66.4371 33.713 66.9484 33.713ZM66.6494 29.28C66.0514 29.28 65.5661 29.475 65.1934 29.865C64.8294 30.255 64.6474 30.7793 64.6474 31.438V31.451L68.5734 30.697C68.4608 30.2723 68.2311 29.93 67.8844 29.67C67.5464 29.41 67.1348 29.28 66.6494 29.28ZM75.7636 27.98C76.4396 27.98 77.042 28.1273 77.5706 28.422C78.108 28.7167 78.5283 29.1327 78.8316 29.67C79.135 30.2073 79.2866 30.827 79.2866 31.529C79.2866 32.231 79.135 32.855 78.8316 33.401C78.5283 33.9383 78.108 34.3543 77.5706 34.649C77.042 34.9437 76.4396 35.091 75.7636 35.091C74.8276 35.091 74.0866 34.779 73.5406 34.155V37.522H71.9156V28.058H73.4626V28.968C73.7313 28.6387 74.0606 28.3917 74.4506 28.227C74.8493 28.0623 75.287 27.98 75.7636 27.98ZM75.5816 33.7C76.1796 33.7 76.6693 33.5007 77.0506 33.102C77.4406 32.7033 77.6356 32.179 77.6356 31.529C77.6356 30.879 77.4406 30.3547 77.0506 29.956C76.6693 29.5573 76.1796 29.358 75.5816 29.358C75.1916 29.358 74.8406 29.449 74.5286 29.631C74.2166 29.8043 73.9696 30.0557 73.7876 30.385C73.6056 30.7143 73.5146 31.0957 73.5146 31.529C73.5146 31.9623 73.6056 32.3437 73.7876 32.673C73.9696 33.0023 74.2166 33.258 74.5286 33.44C74.8406 33.6133 75.1916 33.7 75.5816 33.7ZM84.8105 28.058H86.4355V35H84.8105V28.058ZM85.6295 26.914C85.3349 26.914 85.0879 26.823 84.8885 26.641C84.6892 26.4503 84.5895 26.2163 84.5895 25.939C84.5895 25.6617 84.6892 25.432 84.8885 25.25C85.0879 25.0593 85.3349 24.964 85.6295 24.964C85.9242 24.964 86.1712 25.055 86.3705 25.237C86.5699 25.4103 86.6695 25.6313 86.6695 25.9C86.6695 26.186 86.5699 26.4287 86.3705 26.628C86.1799 26.8187 85.9329 26.914 85.6295 26.914ZM92.7023 27.98C93.5777 27.98 94.2797 28.2357 94.8083 28.747C95.337 29.2583 95.6013 30.0167 95.6013 31.022V35H93.9763V31.23C93.9763 30.6233 93.8333 30.1683 93.5473 29.865C93.2613 29.553 92.854 29.397 92.3253 29.397C91.7273 29.397 91.255 29.579 90.9083 29.943C90.5617 30.2983 90.3883 30.814 90.3883 31.49V35H88.7633V28.058H90.3103V28.955C90.579 28.6343 90.917 28.3917 91.3243 28.227C91.7317 28.0623 92.191 27.98 92.7023 27.98ZM101.758 34.623C101.567 34.779 101.333 34.896 101.056 34.974C100.787 35.052 100.501 35.091 100.198 35.091C99.4351 35.091 98.8458 34.8917 98.4298 34.493C98.0138 34.0943 97.8058 33.5137 97.8058 32.751V26.524H99.4308V28.11H101.29V29.41H99.4308V32.712C99.4308 33.05 99.5131 33.31 99.6778 33.492C99.8511 33.6653 100.089 33.752 100.393 33.752C100.757 33.752 101.06 33.6567 101.303 33.466L101.758 34.623ZM106.187 35.091C105.485 35.091 104.853 34.9393 104.289 34.636C103.726 34.3327 103.284 33.9123 102.963 33.375C102.651 32.829 102.495 32.2137 102.495 31.529C102.495 30.8443 102.651 30.2333 102.963 29.696C103.284 29.1587 103.726 28.7383 104.289 28.435C104.853 28.1317 105.485 27.98 106.187 27.98C106.898 27.98 107.535 28.1317 108.098 28.435C108.662 28.7383 109.099 29.1587 109.411 29.696C109.732 30.2333 109.892 30.8443 109.892 31.529C109.892 32.2137 109.732 32.829 109.411 33.375C109.099 33.9123 108.662 34.3327 108.098 34.636C107.535 34.9393 106.898 35.091 106.187 35.091ZM106.187 33.7C106.785 33.7 107.279 33.5007 107.669 33.102C108.059 32.7033 108.254 32.179 108.254 31.529C108.254 30.879 108.059 30.3547 107.669 29.956C107.279 29.5573 106.785 29.358 106.187 29.358C105.589 29.358 105.095 29.5573 104.705 29.956C104.324 30.3547 104.133 30.879 104.133 31.529C104.133 32.179 104.324 32.7033 104.705 33.102C105.095 33.5007 105.589 33.7 106.187 33.7ZM119.329 34.623C119.138 34.779 118.904 34.896 118.627 34.974C118.358 35.052 118.072 35.091 117.769 35.091C117.006 35.091 116.417 34.8917 116.001 34.493C115.585 34.0943 115.377 33.5137 115.377 32.751V26.524H117.002V28.11H118.861V29.41H117.002V32.712C117.002 33.05 117.084 33.31 117.249 33.492C117.422 33.6653 117.661 33.752 117.964 33.752C118.328 33.752 118.631 33.6567 118.874 33.466L119.329 34.623ZM124.806 27.98C125.682 27.98 126.384 28.2357 126.912 28.747C127.441 29.2583 127.705 30.0167 127.705 31.022V35H126.08V31.23C126.08 30.6233 125.937 30.1683 125.651 29.865C125.365 29.553 124.958 29.397 124.429 29.397C123.831 29.397 123.359 29.579 123.012 29.943C122.666 30.2983 122.492 30.814 122.492 31.49V35H120.867V25.354H122.492V28.864C122.761 28.578 123.09 28.3613 123.48 28.214C123.879 28.058 124.321 27.98 124.806 27.98ZM133.327 33.713C134.081 33.713 134.709 33.4617 135.212 32.959L136.07 33.96C135.767 34.3327 135.377 34.6143 134.9 34.805C134.423 34.9957 133.886 35.091 133.288 35.091C132.525 35.091 131.854 34.9393 131.273 34.636C130.692 34.3327 130.242 33.9123 129.921 33.375C129.609 32.829 129.453 32.2137 129.453 31.529C129.453 30.853 129.605 30.2463 129.908 29.709C130.22 29.163 130.645 28.7383 131.182 28.435C131.728 28.1317 132.343 27.98 133.028 27.98C133.678 27.98 134.267 28.123 134.796 28.409C135.333 28.6863 135.758 29.0893 136.07 29.618C136.382 30.138 136.538 30.749 136.538 31.451L131.221 32.491C131.386 32.8897 131.65 33.193 132.014 33.401C132.378 33.609 132.816 33.713 133.327 33.713ZM133.028 29.28C132.43 29.28 131.945 29.475 131.572 29.865C131.208 30.255 131.026 30.7793 131.026 31.438V31.451L134.952 30.697C134.839 30.2723 134.61 29.93 134.263 29.67C133.925 29.41 133.513 29.28 133.028 29.28ZM146.216 27.252C145.436 27.252 144.847 27.4253 144.448 27.772C144.049 28.1187 143.85 28.63 143.85 29.306V30.086H147.815V31.516H143.85V35H142.16V29.306C142.16 28.2053 142.511 27.343 143.213 26.719C143.924 26.0863 144.899 25.77 146.138 25.77C146.658 25.77 147.143 25.8263 147.594 25.939C148.045 26.0517 148.439 26.2163 148.777 26.433L148.244 27.811C147.707 27.4383 147.031 27.252 146.216 27.252ZM156.603 28.058V35H155.056V34.116C154.796 34.428 154.471 34.6707 154.081 34.844C153.691 35.0087 153.27 35.091 152.82 35.091C151.892 35.091 151.16 34.8353 150.623 34.324C150.094 33.804 149.83 33.037 149.83 32.023V28.058H151.455V31.802C151.455 32.426 151.593 32.894 151.871 33.206C152.157 33.5093 152.56 33.661 153.08 33.661C153.66 33.661 154.12 33.4833 154.458 33.128C154.804 32.764 154.978 32.244 154.978 31.568V28.058H156.603ZM162.825 34.623C162.635 34.779 162.401 34.896 162.123 34.974C161.855 35.052 161.569 35.091 161.265 35.091C160.503 35.091 159.913 34.8917 159.497 34.493C159.081 34.0943 158.873 33.5137 158.873 32.751V26.524H160.498V28.11H162.357V29.41H160.498V32.712C160.498 33.05 160.581 33.31 160.745 33.492C160.919 33.6653 161.157 33.752 161.46 33.752C161.824 33.752 162.128 33.6567 162.37 33.466L162.825 34.623ZM171.084 28.058V35H169.537V34.116C169.277 34.428 168.952 34.6707 168.562 34.844C168.172 35.0087 167.752 35.091 167.301 35.091C166.374 35.091 165.642 34.8353 165.104 34.324C164.576 33.804 164.311 33.037 164.311 32.023V28.058H165.936V31.802C165.936 32.426 166.075 32.894 166.352 33.206C166.638 33.5093 167.041 33.661 167.561 33.661C168.142 33.661 168.601 33.4833 168.939 33.128C169.286 32.764 169.459 32.244 169.459 31.568V28.058H171.084ZM174.954 29.072C175.422 28.344 176.245 27.98 177.424 27.98V29.527C177.285 29.501 177.16 29.488 177.047 29.488C176.414 29.488 175.92 29.6743 175.565 30.047C175.21 30.411 175.032 30.9397 175.032 31.633V35H173.407V28.058H174.954V29.072ZM182.236 33.713C182.99 33.713 183.618 33.4617 184.121 32.959L184.979 33.96C184.676 34.3327 184.286 34.6143 183.809 34.805C183.332 34.9957 182.795 35.091 182.197 35.091C181.434 35.091 180.763 34.9393 180.182 34.636C179.601 34.3327 179.151 33.9123 178.83 33.375C178.518 32.829 178.362 32.2137 178.362 31.529C178.362 30.853 178.514 30.2463 178.817 29.709C179.129 29.163 179.554 28.7383 180.091 28.435C180.637 28.1317 181.252 27.98 181.937 27.98C182.587 27.98 183.176 28.123 183.705 28.409C184.242 28.6863 184.667 29.0893 184.979 29.618C185.291 30.138 185.447 30.749 185.447 31.451L180.13 32.491C180.295 32.8897 180.559 33.193 180.923 33.401C181.287 33.609 181.725 33.713 182.236 33.713ZM181.937 29.28C181.339 29.28 180.854 29.475 180.481 29.865C180.117 30.255 179.935 30.7793 179.935 31.438V31.451L183.861 30.697C183.748 30.2723 183.519 29.93 183.172 29.67C182.834 29.41 182.422 29.28 181.937 29.28Z" fill="#91C0AC"/>
</svg>
