<svg width="22" height="16" viewBox="0 0 22 16" fill="none" xmlns="http://www.w3.org/2000/svg">
<g clip-path="url(#clip0_2612_2)">
<path fill-rule="evenodd" clip-rule="evenodd" d="M0.00341797 0V16H21.3368V0H0.00341797Z" fill="#2E42A5"/>
<mask id="mask0_2612_2" style="mask-type:luminance" maskUnits="userSpaceOnUse" x="0" y="0" width="22" height="16">
<path fill-rule="evenodd" clip-rule="evenodd" d="M0.00341797 0V16H21.3368V0H0.00341797Z" fill="white"/>
</mask>
<g mask="url(#mask0_2612_2)">
<path d="M-2.37183 14.8567L2.32284 16.8427L21.4428 2.15868L23.9195 -0.791989L18.8995 -1.45532L11.1008 4.87201L4.82351 9.13601L-2.37183 14.8567Z" fill="white"/>
<path d="M-1.72998 16.248L0.662686 17.4L23.03 -1.06604H19.672L-1.72998 16.248Z" fill="#F50100"/>
<path d="M23.7122 14.8567L19.0176 16.8427L-0.102435 2.15868L-2.5791 -0.791989L2.4409 -1.45532L10.2396 4.87201L16.5169 9.13601L23.7122 14.8567Z" fill="white"/>
<path d="M23.5521 15.8554L21.1601 17.0074L11.6361 9.10068L8.81213 8.21802L-2.81787 -0.781982H0.540796L12.1635 8.00468L15.2508 9.06335L23.5521 15.8554Z" fill="#F50100"/>
<path fill-rule="evenodd" clip-rule="evenodd" d="M13.1887 -1.33337H8.15139V5.33329H-1.31128V10.6666H8.15139V17.3333H13.1887V10.6666H22.6887V5.33329H13.1887V-1.33337Z" fill="#F50100"/>
<mask id="mask1_2612_2" style="mask-type:luminance" maskUnits="userSpaceOnUse" x="-2" y="-2" width="25" height="20">
<path fill-rule="evenodd" clip-rule="evenodd" d="M13.1887 -1.33337H8.15139V5.33329H-1.31128V10.6666H8.15139V17.3333H13.1887V10.6666H22.6887V5.33329H13.1887V-1.33337Z" fill="white"/>
</mask>
<g mask="url(#mask1_2612_2)">
<path d="M8.15147 -1.33341V-2.66675H6.81814V-1.33341H8.15147ZM13.1888 -1.33341H14.5221V-2.66675H13.1888V-1.33341ZM8.15147 5.33325V6.66659H9.4848V5.33325H8.15147ZM-1.3112 5.33325V3.99992H-2.64453V5.33325H-1.3112ZM-1.3112 10.6666H-2.64453V11.9999H-1.3112V10.6666ZM8.15147 10.6666H9.4848V9.33325H8.15147V10.6666ZM8.15147 17.3333H6.81814V18.6666H8.15147V17.3333ZM13.1888 17.3333V18.6666H14.5221V17.3333H13.1888ZM13.1888 10.6666V9.33325H11.8555V10.6666H13.1888ZM22.6888 10.6666V11.9999H24.0221V10.6666H22.6888ZM22.6888 5.33325H24.0221V3.99992H22.6888V5.33325ZM13.1888 5.33325H11.8555V6.66659H13.1888V5.33325ZM8.15147 -8.13007e-05H13.1888V-2.66675H8.15147V-8.13007e-05ZM9.4848 5.33325V-1.33341H6.81814V5.33325H9.4848ZM-1.3112 6.66659H8.15147V3.99992H-1.3112V6.66659ZM0.0221355 10.6666V5.33325H-2.64453V10.6666H0.0221355ZM8.15147 9.33325H-1.3112V11.9999H8.15147V9.33325ZM9.4848 17.3333V10.6666H6.81814V17.3333H9.4848ZM13.1888 15.9999H8.15147V18.6666H13.1888V15.9999ZM11.8555 10.6666V17.3333H14.5221V10.6666H11.8555ZM22.6888 9.33325H13.1888V11.9999H22.6888V9.33325ZM21.3555 5.33325V10.6666H24.0221V5.33325H21.3555ZM13.1888 6.66659H22.6888V3.99992H13.1888V6.66659ZM11.8555 -1.33341V5.33325H14.5221V-1.33341H11.8555Z" fill="white"/>
</g>
</g>
</g>
<defs>
<clipPath id="clip0_2612_2">
<rect width="21.34" height="16" fill="white"/>
</clipPath>
</defs>
</svg>
