<svg width="22" height="16" viewBox="0 0 22 16" fill="none" xmlns="http://www.w3.org/2000/svg">
<g clip-path="url(#clip0_2612_18)">
<path fill-rule="evenodd" clip-rule="evenodd" d="M0.00341797 0V16H21.3368V0H0.00341797Z" fill="#4857A1"/>
<mask id="mask0_2612_18" style="mask-type:luminance" maskUnits="userSpaceOnUse" x="0" y="0" width="22" height="16">
<path fill-rule="evenodd" clip-rule="evenodd" d="M0.00341797 0V16H21.3368V0H0.00341797Z" fill="white"/>
</mask>
<g mask="url(#mask0_2612_18)">
<path fill-rule="evenodd" clip-rule="evenodd" d="M0.00341797 0V5.33333H21.3368V0H0.00341797Z" fill="#C51918"/>
<path fill-rule="evenodd" clip-rule="evenodd" d="M0.00341797 10.6666V16H21.3368V10.6666H0.00341797Z" fill="#F7FCFF"/>
<path fill-rule="evenodd" clip-rule="evenodd" d="M7.64083 2.53528L7.56549 2.23328C7.62949 2.25328 7.69883 2.2735 7.77349 2.29394L7.77216 2.28994C8.65216 2.36994 10.0128 2.82528 10.2655 3.30928C10.3642 3.49594 10.2668 3.65594 10.1388 3.86461L10.0802 3.96194C10.0166 4.07083 9.95771 4.17439 9.90349 4.27261C9.70549 4.62594 9.55149 4.90194 9.31683 5.04328L9.32149 5.84394L5.39149 5.81061L5.38616 5.00128C5.18549 4.85128 5.04149 4.59461 4.86149 4.27261C4.80727 4.17439 4.74838 4.07083 4.68483 3.96194L4.62616 3.86461C4.49883 3.65594 4.40149 3.49661 4.49949 3.30928C4.68949 2.94528 5.55216 2.59194 6.34216 2.40461C6.49816 2.34928 6.66083 2.29794 6.82216 2.24794L6.89349 2.29994C6.95616 2.2915 7.0166 2.28483 7.07483 2.27994L7.16549 2.48128H7.48549C7.48549 2.48128 7.67883 3.05461 7.67883 3.37394C7.67883 3.69261 7.48549 3.95594 7.48549 3.95594V4.17594L7.59083 4.18594C7.59083 4.16683 7.5926 4.14683 7.59616 4.12594C7.61483 4.02128 7.67283 3.94328 7.72483 3.95261C7.77816 3.96194 7.80483 4.05461 7.78683 4.15928L7.77483 4.20861C7.98149 4.23661 8.21483 4.27594 8.43483 4.31661C8.51816 4.15394 8.62016 3.99328 8.71816 3.84061C8.97016 3.44394 9.19149 3.09661 8.98483 2.88928C8.92541 2.84 8.85705 2.80265 8.78349 2.77928C8.47093 2.70119 8.15291 2.64681 7.83216 2.61661L7.82283 2.56461L7.64083 2.53528ZM9.13416 4.45528L9.31416 4.49328V4.60794C9.70349 4.30794 9.97949 3.64328 10.0042 3.42528C10.0188 3.29394 9.81083 3.14261 9.48416 3.00528C9.63883 3.29861 9.43149 3.58928 9.17216 3.95394C9.07483 4.09128 8.96949 4.23928 8.87349 4.40128L8.96883 4.42128C8.96774 4.38753 8.97178 4.35381 8.98083 4.32128C9.00883 4.21861 9.07283 4.14661 9.12416 4.15994C9.17616 4.17394 9.19549 4.26861 9.16749 4.37194C9.16019 4.4011 9.14898 4.42913 9.13416 4.45528ZM7.12616 4.17728V3.93194C7.12616 3.93194 6.95883 3.74528 6.93283 3.35594C6.91416 3.07728 6.97149 2.74928 7.00616 2.58594C6.75616 2.61728 6.49283 2.66661 6.23816 2.72728C6.06883 2.77461 5.93416 2.82861 5.87416 2.88928C5.66749 3.09594 5.88883 3.44394 6.14083 3.84061C6.23549 3.98861 6.33416 4.14328 6.41616 4.29994C6.55816 4.26928 6.70083 4.24061 6.83416 4.21794C6.82903 4.19594 6.82503 4.17369 6.82216 4.15128C6.81283 4.04461 6.84883 3.95528 6.90216 3.95061C6.95549 3.94594 7.00549 4.02794 7.01483 4.13461L7.01549 4.18994L7.12616 4.17728ZM5.68749 3.95328C5.42149 3.57994 5.21083 3.28461 5.38616 2.98461C5.00349 3.13261 4.74616 3.29328 4.76083 3.42461C4.78416 3.63061 5.03149 4.23528 5.38749 4.55461C5.41216 4.54794 5.54949 4.50928 5.74349 4.45994C5.72716 4.43446 5.71438 4.40687 5.70549 4.37794C5.67216 4.27661 5.68749 4.18061 5.73816 4.16461C5.78883 4.14861 5.85683 4.21661 5.88949 4.31794C5.90057 4.35016 5.90664 4.38389 5.90749 4.41794L5.98483 4.39928C5.88949 4.23728 5.78483 4.09061 5.68749 3.95328Z" fill="#F6C540"/>
<path fill-rule="evenodd" clip-rule="evenodd" d="M7.77153 2.33733C7.77084 2.39371 7.75904 2.44941 7.73682 2.50123C7.7146 2.55305 7.68239 2.59999 7.64202 2.63936C7.60166 2.67874 7.55394 2.70977 7.50158 2.7307C7.44922 2.75163 7.39325 2.76204 7.33687 2.76133C7.28049 2.76204 7.22452 2.75163 7.17216 2.7307C7.1198 2.70977 7.07208 2.67874 7.03171 2.63936C6.99135 2.59999 6.95914 2.55305 6.93691 2.50123C6.91469 2.44941 6.9029 2.39371 6.9022 2.33733C6.9022 2.10333 7.09687 1.91333 7.33687 1.91333C7.57687 1.91333 7.77153 2.10333 7.77153 2.33733ZM7.33687 5.488C7.52353 5.488 7.67487 5.40133 7.67487 5.29466C7.67487 5.188 7.52353 5.10133 7.33687 5.10133C7.1502 5.10133 6.99887 5.188 6.99887 5.29466C6.99887 5.40133 7.1502 5.488 7.33687 5.488ZM5.6462 5.43933C5.6462 5.47779 5.63092 5.51467 5.60373 5.54186C5.57654 5.56905 5.53966 5.58433 5.5012 5.58433C5.46274 5.58433 5.42586 5.56905 5.39867 5.54186C5.37148 5.51467 5.3562 5.47779 5.3562 5.43933C5.3562 5.40087 5.37148 5.36399 5.39867 5.3368C5.42586 5.30961 5.46274 5.29433 5.5012 5.29433C5.53966 5.29433 5.57654 5.30961 5.60373 5.3368C5.63092 5.36399 5.6462 5.40087 5.6462 5.43933ZM9.51087 5.43933C9.51087 5.47779 9.49559 5.51467 9.4684 5.54186C9.44121 5.56905 9.40432 5.58433 9.36587 5.58433C9.32741 5.58433 9.29053 5.56905 9.26334 5.54186C9.23614 5.51467 9.22087 5.47779 9.22087 5.43933C9.22087 5.40087 9.23614 5.36399 9.26334 5.3368C9.29053 5.30961 9.32741 5.29433 9.36587 5.29433C9.40432 5.29433 9.44121 5.30961 9.4684 5.3368C9.49559 5.36399 9.51087 5.40087 9.51087 5.43933Z" fill="#2E42A5"/>
<path fill-rule="evenodd" clip-rule="evenodd" d="M6.612 5.34333C6.612 5.42333 6.504 5.488 6.37066 5.488C6.23733 5.488 6.12866 5.42333 6.12866 5.34333C6.12866 5.26333 6.23733 5.198 6.37066 5.198C6.504 5.198 6.612 5.26266 6.612 5.34333ZM8.64133 5.34333C8.64133 5.42333 8.53266 5.488 8.39933 5.488C8.266 5.488 8.158 5.42333 8.158 5.34333C8.158 5.26333 8.266 5.198 8.39933 5.198C8.53266 5.198 8.64133 5.26266 8.64133 5.34333Z" fill="#C5363C"/>
<path fill-rule="evenodd" clip-rule="evenodd" d="M8.15809 4.13535C8.15809 4.24202 8.11476 4.32868 8.06143 4.32868C8.00809 4.32868 7.96476 4.24202 7.96476 4.13535C7.96476 4.02868 8.00809 3.94202 8.06143 3.94202C8.11476 3.94202 8.15809 4.02868 8.15809 4.13535ZM6.70409 4.10535C6.73743 4.20668 6.72276 4.30268 6.67209 4.31868C6.62143 4.33468 6.55343 4.26668 6.52009 4.16535C6.48676 4.06402 6.50143 3.96802 6.55276 3.95202C6.60343 3.93535 6.67143 4.00402 6.70409 4.10535ZM5.56743 4.62935C5.61809 4.61268 5.63276 4.51735 5.59943 4.41602C5.56609 4.31402 5.49876 4.24535 5.44809 4.26202C5.39743 4.27868 5.38276 4.37402 5.41609 4.47535C5.44943 4.57668 5.51609 4.64602 5.56743 4.62935ZM9.39076 4.49802C9.33409 4.58868 9.25143 4.63935 9.20609 4.61135C9.16076 4.58268 9.17009 4.48602 9.22609 4.39602C9.28343 4.30535 9.36609 4.25468 9.41076 4.28268C9.45609 4.31135 9.44676 4.40735 9.39076 4.49802Z" fill="#F7FCFF"/>
<path fill-rule="evenodd" clip-rule="evenodd" d="M6.51682 2.528C6.54438 2.54844 6.57615 2.55889 6.61215 2.55933C6.64124 2.55926 6.66978 2.55143 6.69483 2.53663C6.71987 2.52184 6.74051 2.50063 6.75462 2.47519C6.76872 2.44975 6.77577 2.42101 6.77505 2.39193C6.77432 2.36285 6.76584 2.33449 6.75049 2.30979C6.73514 2.28508 6.71346 2.26492 6.68771 2.2514C6.66196 2.23787 6.63306 2.23147 6.60401 2.23285C6.57495 2.23423 6.5468 2.24335 6.52244 2.25925C6.49809 2.27516 6.47843 2.29728 6.46549 2.32333C6.44759 2.31027 6.4272 2.301 6.40559 2.29609C6.38398 2.29119 6.36159 2.29075 6.33981 2.29481C6.31802 2.29887 6.29729 2.30733 6.27889 2.31969C6.2605 2.33205 6.24482 2.34803 6.23282 2.36667C6.20796 2.34614 6.17759 2.33343 6.14552 2.33013C6.11345 2.32684 6.08113 2.3331 6.05262 2.34814C6.0241 2.36318 6.00068 2.38633 5.98529 2.41465C5.96991 2.44298 5.96325 2.47523 5.96615 2.50733C5.94636 2.48258 5.91977 2.46414 5.88964 2.4543C5.85952 2.44445 5.82717 2.44362 5.79658 2.4519C5.76599 2.46019 5.73848 2.47723 5.71744 2.50093C5.6964 2.52464 5.68275 2.55397 5.67815 2.58533C5.65902 2.56077 5.63327 2.54219 5.60393 2.53178C5.57459 2.52137 5.54288 2.51956 5.51255 2.52656C5.48222 2.53357 5.45452 2.5491 5.43271 2.57132C5.41091 2.59355 5.39591 2.62154 5.38949 2.652C5.36872 2.63698 5.34471 2.62707 5.31939 2.62309C5.29407 2.61911 5.26818 2.62117 5.24381 2.6291C5.21944 2.63703 5.19728 2.6506 5.17916 2.66872C5.16103 2.68683 5.14743 2.70897 5.13949 2.73333C5.11675 2.72207 5.09169 2.71626 5.06632 2.71637C5.04094 2.71648 5.01594 2.72249 4.99329 2.73395C4.97065 2.7454 4.95098 2.76197 4.93586 2.78235C4.92073 2.80272 4.91056 2.82634 4.90615 2.85133C4.88261 2.84654 4.8583 2.84698 4.83495 2.85262C4.81159 2.85826 4.78976 2.86897 4.771 2.88398C4.75224 2.89899 4.73701 2.91793 4.72638 2.93948C4.71575 2.96103 4.70998 2.98464 4.70949 3.00867L4.68015 3.006C4.65587 3.00598 4.63188 3.01138 4.60995 3.02181C4.58801 3.03223 4.56868 3.04742 4.55335 3.06625C4.53802 3.08509 4.52709 3.10711 4.52135 3.13071C4.5156 3.15431 4.5152 3.17889 4.52015 3.20267C4.49639 3.19784 4.47185 3.19833 4.44831 3.20413C4.42476 3.20992 4.4028 3.22086 4.38399 3.23616C4.36518 3.25146 4.35 3.27075 4.33953 3.29262C4.32907 3.3145 4.32359 3.33842 4.32349 3.36267C4.32349 3.43067 4.36549 3.48933 4.42549 3.514C4.41528 3.55247 4.41946 3.59334 4.43726 3.62894C4.45506 3.66454 4.48525 3.69242 4.52215 3.70733C4.51595 3.73095 4.51513 3.75566 4.51974 3.77965C4.52435 3.80363 4.53428 3.82627 4.5488 3.84591C4.56332 3.86555 4.58206 3.88168 4.60364 3.89311C4.62522 3.90455 4.64908 3.911 4.67349 3.912C4.64404 3.9361 4.62397 3.96977 4.61678 4.00715C4.60959 4.04452 4.61573 4.08323 4.63413 4.11654C4.65254 4.14985 4.68204 4.17566 4.71751 4.18946C4.75297 4.20327 4.79216 4.2042 4.82824 4.1921C4.86432 4.18 4.89502 4.15563 4.91499 4.12323C4.93496 4.09084 4.94294 4.05246 4.93754 4.01479C4.93214 3.97712 4.9137 3.94253 4.88543 3.91705C4.85716 3.89157 4.82085 3.87681 4.78282 3.87533C4.805 3.8575 4.82211 3.83417 4.83244 3.80766C4.84278 3.78115 4.84599 3.75239 4.84174 3.72426C4.83748 3.69612 4.82593 3.6696 4.80822 3.64732C4.79051 3.62505 4.76727 3.60781 4.74082 3.59733C4.75103 3.55886 4.74684 3.51799 4.72904 3.48239C4.71124 3.44679 4.68106 3.41891 4.64415 3.404C4.65056 3.37937 4.65125 3.3536 4.64615 3.32867C4.6697 3.33346 4.694 3.33302 4.71736 3.32737C4.74071 3.32173 4.76254 3.31103 4.7813 3.29602C4.80007 3.28101 4.8153 3.26206 4.82593 3.24052C4.83656 3.21897 4.84233 3.19535 4.84282 3.17133C4.88569 3.17912 4.92989 3.1696 4.96575 3.14486C5.00162 3.12012 5.02621 3.08217 5.03415 3.03933C5.07334 3.04704 5.11399 3.04019 5.14848 3.02006C5.18297 2.99993 5.20893 2.96791 5.22149 2.93C5.24804 2.94376 5.27791 2.94981 5.30773 2.94745C5.33754 2.94509 5.36609 2.93443 5.39015 2.91667C5.39509 2.93811 5.40439 2.95831 5.41749 2.976C5.3999 2.9999 5.38916 3.02815 5.38642 3.05769C5.38368 3.08724 5.38904 3.11698 5.40192 3.14371C5.41481 3.17044 5.43473 3.19316 5.45956 3.20942C5.48438 3.22568 5.51317 3.23487 5.54282 3.236C5.52064 3.25383 5.50353 3.27716 5.49319 3.30367C5.48286 3.33018 5.47965 3.35894 5.4839 3.38707C5.48815 3.41521 5.49971 3.44173 5.51742 3.46401C5.53513 3.48628 5.55837 3.50352 5.58482 3.514C5.57461 3.55247 5.5788 3.59334 5.5966 3.62894C5.6144 3.66454 5.64458 3.69242 5.68149 3.70733C5.67353 3.73772 5.6745 3.76975 5.68429 3.7996C5.69407 3.82944 5.71225 3.85584 5.73666 3.87561C5.76106 3.89539 5.79064 3.90771 5.82187 3.91109C5.8531 3.91448 5.88464 3.9088 5.91271 3.89472C5.94079 3.88063 5.96421 3.85876 5.98017 3.8317C5.99613 3.80465 6.00395 3.77357 6.00269 3.74219C6.00144 3.7108 5.99116 3.68045 5.97309 3.65475C5.95502 3.62906 5.92993 3.60913 5.90082 3.59733C5.91103 3.55886 5.90684 3.51799 5.88904 3.48239C5.87124 3.44679 5.84106 3.41891 5.80415 3.404C5.81036 3.38032 5.81117 3.35556 5.80652 3.33153C5.80187 3.3075 5.79188 3.28482 5.77729 3.26517C5.7627 3.24552 5.74388 3.2294 5.72222 3.21801C5.70056 3.20661 5.67661 3.20023 5.65215 3.19933C5.68481 3.17299 5.70603 3.13505 5.71137 3.09343C5.71671 3.05181 5.70577 3.00974 5.68082 2.976C5.70191 2.94818 5.71332 2.91424 5.71332 2.87933C5.71332 2.84443 5.70191 2.81048 5.68082 2.78267C5.69661 2.76151 5.70691 2.73677 5.71082 2.71067C5.73229 2.73895 5.76243 2.75943 5.79664 2.76897C5.83084 2.77852 5.86723 2.77661 5.90025 2.76354C5.93327 2.75047 5.9611 2.72696 5.9795 2.69658C5.9979 2.66621 6.00586 2.63065 6.00215 2.59533C6.0183 2.6155 6.03903 2.63154 6.06261 2.6421C6.08619 2.65267 6.11194 2.65747 6.13775 2.6561C6.16355 2.65473 6.18866 2.64724 6.21099 2.63424C6.23332 2.62123 6.25223 2.6031 6.26615 2.58133C6.28508 2.59707 6.30732 2.6083 6.33122 2.6142C6.35511 2.62009 6.38003 2.62048 6.4041 2.61535C6.42817 2.61021 6.45076 2.59968 6.47017 2.58455C6.48958 2.56942 6.5053 2.55009 6.51615 2.528M5.54882 2.84933C5.60215 2.84933 5.65149 2.82267 5.68082 2.78267C5.6655 2.76223 5.64502 2.7456 5.62225 2.73404C5.59948 2.72248 5.57436 2.71631 5.54882 2.716C5.55276 2.716 5.55666 2.71522 5.5603 2.71372C5.56394 2.71221 5.56725 2.71 5.57003 2.70721C5.57282 2.70443 5.57503 2.70112 5.57654 2.69748C5.57804 2.69384 5.57882 2.68994 5.57882 2.686C5.57882 2.68206 5.57804 2.67816 5.57654 2.67452C5.57503 2.67088 5.57282 2.66757 5.57003 2.66479C5.56725 2.662 5.56394 2.65979 5.5603 2.65828C5.55666 2.65677 5.55276 2.656 5.54882 2.656C5.54086 2.656 5.53323 2.65916 5.52761 2.66479C5.52198 2.67041 5.51882 2.67804 5.51882 2.686C5.51882 2.69396 5.52198 2.70159 5.52761 2.70721C5.53323 2.71284 5.54086 2.716 5.54882 2.716C5.51428 2.71581 5.4806 2.7268 5.45282 2.74733C5.4436 2.70873 5.4209 2.67469 5.38882 2.65133C5.38412 2.67397 5.38419 2.69733 5.38901 2.71994C5.39383 2.74255 5.4033 2.76391 5.41682 2.78267C5.40286 2.80157 5.39323 2.82331 5.38862 2.84636C5.38401 2.8694 5.38453 2.89385 5.39015 2.91667C5.42225 2.89286 5.44473 2.85765 5.45349 2.81867C5.48104 2.83867 5.51282 2.84889 5.54882 2.84933ZM5.54882 2.90933C5.52317 2.90954 5.49792 2.91566 5.47502 2.92722C5.45213 2.93879 5.43221 2.95548 5.41682 2.976C5.44682 3.016 5.49482 3.04267 5.54882 3.04267C5.54488 3.04267 5.54098 3.04344 5.53734 3.04495C5.5337 3.04646 5.53039 3.04867 5.52761 3.05145C5.52482 3.05424 5.52261 3.05755 5.5211 3.06119C5.5196 3.06482 5.51882 3.06873 5.51882 3.07267C5.51882 3.07661 5.5196 3.08051 5.5211 3.08415C5.52261 3.08779 5.52482 3.09109 5.52761 3.09388C5.53039 3.09666 5.5337 3.09887 5.53734 3.10038C5.54098 3.10189 5.54488 3.10267 5.54882 3.10267C5.55678 3.10267 5.56441 3.09951 5.57003 3.09388C5.57566 3.08825 5.57882 3.08062 5.57882 3.07267C5.57882 3.06471 5.57566 3.05708 5.57003 3.05145C5.56441 3.04583 5.55678 3.04267 5.54882 3.04267C5.60215 3.04267 5.65149 3.016 5.68082 2.976C5.6655 2.95557 5.64502 2.93893 5.62225 2.92737C5.59948 2.91581 5.57436 2.90964 5.54882 2.90933ZM5.54882 2.90933C5.55678 2.90933 5.56441 2.90617 5.57003 2.90055C5.57566 2.89492 5.57882 2.88729 5.57882 2.87933C5.57882 2.87138 5.57566 2.86375 5.57003 2.85812C5.56441 2.85249 5.55678 2.84933 5.54882 2.84933C5.54086 2.84933 5.53323 2.85249 5.52761 2.85812C5.52198 2.86375 5.51882 2.87138 5.51882 2.87933C5.51882 2.88729 5.52198 2.89492 5.52761 2.90055C5.53323 2.90617 5.54086 2.90933 5.54882 2.90933ZM5.45349 2.81867C5.43977 2.80829 5.42744 2.79619 5.41682 2.78267C5.42728 2.76942 5.43938 2.75754 5.45282 2.74733C5.45709 2.77092 5.45709 2.79508 5.45282 2.81867M5.89949 3.59733C5.87798 3.58838 5.85481 3.58414 5.83153 3.58492C5.80825 3.58569 5.78541 3.59146 5.76455 3.60183C5.74369 3.61219 5.7253 3.62692 5.71063 3.645C5.69595 3.66309 5.68533 3.68412 5.67949 3.70667C5.70099 3.71562 5.72416 3.71985 5.74744 3.71908C5.77072 3.7183 5.79356 3.71254 5.81442 3.70217C5.83528 3.69181 5.85367 3.67708 5.86834 3.65899C5.88302 3.64091 5.89364 3.61988 5.89949 3.59733ZM5.80282 3.404C5.78127 3.39505 5.75805 3.39084 5.73474 3.39166C5.71142 3.39248 5.68855 3.3983 5.66769 3.40873C5.64682 3.41917 5.62844 3.43397 5.6138 3.45213C5.59915 3.47029 5.58859 3.49139 5.58282 3.514C5.60437 3.52295 5.62759 3.52715 5.6509 3.52634C5.67422 3.52552 5.69709 3.5197 5.71795 3.50926C5.73882 3.49883 5.7572 3.48403 5.77184 3.46587C5.78649 3.4477 5.79705 3.4266 5.80282 3.404ZM5.65215 3.2H5.64549C5.60811 3.19964 5.57179 3.21238 5.54282 3.236H5.54949C5.58815 3.236 5.62415 3.22267 5.65215 3.2ZM4.78282 3.87533H4.77682C4.73936 3.87516 4.70236 3.88814 4.67349 3.912H4.68082C4.71828 3.91217 4.75394 3.8992 4.78282 3.87533ZM4.74082 3.59733C4.73485 3.61965 4.72487 3.64045 4.71026 3.65836C4.69566 3.67626 4.67742 3.69086 4.65675 3.70119C4.63608 3.71153 4.61346 3.71736 4.59037 3.7183C4.56729 3.71925 4.54426 3.71528 4.52282 3.70667C4.52879 3.68434 4.53944 3.66355 4.55404 3.64564C4.56865 3.62774 4.58689 3.61314 4.60756 3.6028C4.62822 3.59247 4.65085 3.58664 4.67393 3.5857C4.69702 3.58475 4.71938 3.58872 4.74082 3.59733ZM4.64415 3.404C4.63825 3.42638 4.62833 3.44725 4.61376 3.46523C4.59918 3.48321 4.58096 3.49788 4.56028 3.50829C4.5396 3.51869 4.51695 3.52457 4.49383 3.52556C4.47071 3.52654 4.44697 3.5226 4.42549 3.514C4.43138 3.49162 4.44264 3.47075 4.45721 3.45277C4.47179 3.43479 4.49002 3.42011 4.51069 3.40971C4.53137 3.39931 4.55402 3.39342 4.57714 3.39244C4.60027 3.39145 4.62267 3.39539 4.64415 3.404ZM4.52015 3.20267C4.53349 3.266 4.58349 3.316 4.64749 3.32933C4.64062 3.29835 4.62506 3.26997 4.60262 3.24753C4.58018 3.2251 4.55113 3.20953 4.52015 3.20267ZM4.84349 3.17133C4.80611 3.16435 4.77235 3.14455 4.74801 3.11534C4.72367 3.08613 4.71028 3.04935 4.71015 3.01133L4.70949 3.00867C4.78549 3.022 4.84349 3.08867 4.84349 3.16867V3.17133ZM5.03415 3.03933C4.99244 3.03093 4.95633 3.00658 4.9323 2.97147C4.90827 2.93636 4.89889 2.89325 4.90615 2.85133C4.94786 2.85974 4.98464 2.88409 5.00867 2.9192C5.0327 2.95431 5.04142 2.99741 5.03415 3.03933ZM5.22149 2.93C5.18654 2.91246 5.15971 2.88297 5.14467 2.84688C5.12962 2.81079 5.12735 2.7705 5.13949 2.73333C5.17443 2.75087 5.20259 2.78036 5.21764 2.81645C5.23269 2.85254 5.23362 2.89283 5.22149 2.93ZM5.71149 2.71067C5.69749 2.69326 5.68729 2.67311 5.68155 2.65153C5.67581 2.62994 5.67465 2.60739 5.67815 2.58533C5.69215 2.60274 5.70235 2.62288 5.70809 2.64447C5.71383 2.66606 5.71499 2.68861 5.71149 2.71067ZM5.96749 2.508C5.9706 2.54133 5.98237 2.57022 6.00282 2.59467C5.99994 2.5629 5.98764 2.53272 5.96749 2.508ZM6.26749 2.58133C6.23645 2.55595 6.21589 2.52 6.20973 2.48038C6.20358 2.44076 6.21228 2.40027 6.23415 2.36667C6.26519 2.39205 6.28575 2.428 6.29191 2.46762C6.29806 2.50724 6.28936 2.54773 6.26749 2.58133ZM6.51682 2.528C6.48567 2.50528 6.46356 2.47226 6.45441 2.4348C6.44526 2.39735 6.44965 2.35786 6.46682 2.32333C6.49797 2.34606 6.52008 2.37907 6.52923 2.41653C6.53838 2.45398 6.53399 2.49347 6.51682 2.528ZM4.87349 3.04133C4.87743 3.04133 4.88133 3.04056 4.88497 3.03905C4.88861 3.03754 4.89191 3.03533 4.8947 3.03255C4.89749 3.02976 4.8997 3.02645 4.9012 3.02281C4.90271 3.01917 4.90349 3.01527 4.90349 3.01133C4.90349 3.00739 4.90271 3.00349 4.9012 2.99985C4.8997 2.99621 4.89749 2.9929 4.8947 2.99012C4.89191 2.98733 4.88861 2.98512 4.88497 2.98362C4.88133 2.98211 4.87743 2.98133 4.87349 2.98133C4.86553 2.98133 4.8579 2.98449 4.85227 2.99012C4.84665 2.99575 4.84349 3.00338 4.84349 3.01133C4.84349 3.01929 4.84665 3.02692 4.85227 3.03255C4.8579 3.03817 4.86553 3.04133 4.87349 3.04133ZM4.68015 3.19933C4.68811 3.19933 4.69574 3.19617 4.70137 3.19055C4.70699 3.18492 4.71015 3.17729 4.71015 3.16933C4.71015 3.16138 4.70699 3.15375 4.70137 3.14812C4.69574 3.14249 4.68811 3.13933 4.68015 3.13933C4.6722 3.13933 4.66457 3.14249 4.65894 3.14812C4.65331 3.15375 4.65015 3.16138 4.65015 3.16933C4.65015 3.17729 4.65331 3.18492 4.65894 3.19055C4.66457 3.19617 4.6722 3.19933 4.68015 3.19933ZM4.48682 3.39267C4.49478 3.39267 4.50241 3.3895 4.50803 3.38388C4.51366 3.37825 4.51682 3.37062 4.51682 3.36267C4.51682 3.35471 4.51366 3.34708 4.50803 3.34145C4.50241 3.33583 4.49478 3.33267 4.48682 3.33267C4.47886 3.33267 4.47123 3.33583 4.46561 3.34145C4.45998 3.34708 4.45682 3.35471 4.45682 3.36267C4.45682 3.37062 4.45998 3.37825 4.46561 3.38388C4.47123 3.3895 4.47886 3.39267 4.48682 3.39267ZM4.58415 3.586C4.59211 3.586 4.59974 3.58284 4.60537 3.57721C4.61099 3.57159 4.61415 3.56396 4.61415 3.556C4.61415 3.54804 4.61099 3.54041 4.60537 3.53479C4.59974 3.52916 4.59211 3.526 4.58415 3.526C4.5762 3.526 4.56857 3.52916 4.56294 3.53479C4.55731 3.54041 4.55415 3.54804 4.55415 3.556C4.55415 3.56396 4.55731 3.57159 4.56294 3.57721C4.56857 3.58284 4.5762 3.586 4.58415 3.586ZM4.68082 3.77933C4.68878 3.77933 4.69641 3.77617 4.70203 3.77055C4.70766 3.76492 4.71082 3.75729 4.71082 3.74933C4.71082 3.74138 4.70766 3.73375 4.70203 3.72812C4.69641 3.72249 4.68878 3.71933 4.68082 3.71933C4.67286 3.71933 4.66523 3.72249 4.65961 3.72812C4.65398 3.73375 4.65082 3.74138 4.65082 3.74933C4.65082 3.75729 4.65398 3.76492 4.65961 3.77055C4.66523 3.77617 4.67286 3.77933 4.68082 3.77933ZM4.80749 4.03867C4.80749 4.04662 4.80433 4.05425 4.7987 4.05988C4.79307 4.0655 4.78544 4.06867 4.77749 4.06867C4.76953 4.06867 4.7619 4.0655 4.75627 4.05988C4.75065 4.05425 4.74749 4.04662 4.74749 4.03867C4.74749 4.03071 4.75065 4.02308 4.75627 4.01745C4.7619 4.01183 4.76953 4.00867 4.77749 4.00867C4.78544 4.00867 4.79307 4.01183 4.7987 4.01745C4.80433 4.02308 4.80749 4.03071 4.80749 4.03867ZM5.06749 2.90933C5.07544 2.90933 5.08307 2.90617 5.0887 2.90055C5.09433 2.89492 5.09749 2.88729 5.09749 2.87933C5.09749 2.87138 5.09433 2.86375 5.0887 2.85812C5.08307 2.85249 5.07544 2.84933 5.06749 2.84933C5.05953 2.84933 5.0519 2.85249 5.04627 2.85812C5.04065 2.86375 5.03749 2.87138 5.03749 2.87933C5.03749 2.88729 5.04065 2.89492 5.04627 2.90055C5.0519 2.90617 5.05953 2.90933 5.06749 2.90933ZM5.29482 2.814C5.30278 2.814 5.31041 2.81084 5.31603 2.80521C5.32166 2.79959 5.32482 2.79196 5.32482 2.784C5.32482 2.77604 5.32166 2.76841 5.31603 2.76279C5.31041 2.75716 5.30278 2.754 5.29482 2.754C5.28686 2.754 5.27923 2.75716 5.27361 2.76279C5.26798 2.76841 5.26482 2.77604 5.26482 2.784C5.26482 2.79196 5.26798 2.79959 5.27361 2.80521C5.27923 2.81084 5.28686 2.814 5.29482 2.814ZM5.84015 2.64C5.84811 2.64 5.85574 2.63684 5.86137 2.63121C5.86699 2.62559 5.87015 2.61796 5.87015 2.61C5.87015 2.60204 5.86699 2.59441 5.86137 2.58879C5.85574 2.58316 5.84811 2.58 5.84015 2.58C5.8322 2.58 5.82457 2.58316 5.81894 2.58879C5.81331 2.59441 5.81015 2.60204 5.81015 2.61C5.81015 2.61796 5.81331 2.62559 5.81894 2.63121C5.82457 2.63684 5.8322 2.64 5.84015 2.64ZM6.12949 2.52267C6.13343 2.52267 6.13733 2.52189 6.14097 2.52038C6.14461 2.51887 6.14791 2.51666 6.1507 2.51388C6.15349 2.51109 6.1557 2.50779 6.1572 2.50415C6.15871 2.50051 6.15949 2.49661 6.15949 2.49267C6.15949 2.48873 6.15871 2.48482 6.1572 2.48119C6.1557 2.47755 6.15349 2.47424 6.1507 2.47145C6.14791 2.46867 6.14461 2.46646 6.14097 2.46495C6.13733 2.46344 6.13343 2.46267 6.12949 2.46267C6.12153 2.46267 6.1139 2.46583 6.10827 2.47145C6.10265 2.47708 6.09949 2.48471 6.09949 2.49267C6.09949 2.50062 6.10265 2.50825 6.10827 2.51388C6.1139 2.5195 6.12153 2.52267 6.12949 2.52267ZM6.37082 2.48533C6.37878 2.48533 6.38641 2.48217 6.39203 2.47655C6.39766 2.47092 6.40082 2.46329 6.40082 2.45533C6.40082 2.44738 6.39766 2.43975 6.39203 2.43412C6.38641 2.42849 6.37878 2.42533 6.37082 2.42533C6.36286 2.42533 6.35523 2.42849 6.34961 2.43412C6.34398 2.43975 6.34082 2.44738 6.34082 2.45533C6.34082 2.46329 6.34398 2.47092 6.34961 2.47655C6.35523 2.48217 6.36286 2.48533 6.37082 2.48533ZM6.61282 2.426C6.62078 2.426 6.62841 2.42284 6.63403 2.41721C6.63966 2.41159 6.64282 2.40396 6.64282 2.396C6.64282 2.38804 6.63966 2.38041 6.63403 2.37479C6.62841 2.36916 6.62078 2.366 6.61282 2.366C6.60486 2.366 6.59723 2.36916 6.59161 2.37479C6.58598 2.38041 6.58282 2.38804 6.58282 2.396C6.58282 2.40396 6.58598 2.41159 6.59161 2.41721C6.59723 2.42284 6.60486 2.426 6.61282 2.426ZM5.64615 3.39267C5.65411 3.39267 5.66174 3.3895 5.66737 3.38388C5.67299 3.37825 5.67615 3.37062 5.67615 3.36267C5.67615 3.35471 5.67299 3.34708 5.66737 3.34145C5.66174 3.33583 5.65411 3.33267 5.64615 3.33267C5.6382 3.33267 5.63057 3.33583 5.62494 3.34145C5.61931 3.34708 5.61615 3.35471 5.61615 3.36267C5.61615 3.37062 5.61931 3.37825 5.62494 3.38388C5.63057 3.3895 5.6382 3.39267 5.64615 3.39267ZM5.74349 3.586C5.75144 3.586 5.75907 3.58284 5.7647 3.57721C5.77033 3.57159 5.77349 3.56396 5.77349 3.556C5.77349 3.54804 5.77033 3.54041 5.7647 3.53479C5.75907 3.52916 5.75144 3.526 5.74349 3.526C5.73553 3.526 5.7279 3.52916 5.72227 3.53479C5.71665 3.54041 5.71349 3.54804 5.71349 3.556C5.71349 3.56396 5.71665 3.57159 5.72227 3.57721C5.7279 3.58284 5.73553 3.586 5.74349 3.586ZM5.84015 3.77933C5.84811 3.77933 5.85574 3.77617 5.86137 3.77055C5.86699 3.76492 5.87015 3.75729 5.87015 3.74933C5.87015 3.74138 5.86699 3.73375 5.86137 3.72812C5.85574 3.72249 5.84811 3.71933 5.84015 3.71933C5.8322 3.71933 5.82457 3.72249 5.81894 3.72812C5.81331 3.73375 5.81015 3.74138 5.81015 3.74933C5.81015 3.75729 5.81331 3.76492 5.81894 3.77055C5.82457 3.77617 5.8322 3.77933 5.84015 3.77933ZM10.0915 4.06867C10.0994 4.06867 10.1071 4.0655 10.1127 4.05988C10.1183 4.05425 10.1215 4.04662 10.1215 4.03867C10.1215 4.03071 10.1183 4.02308 10.1127 4.01745C10.1071 4.01183 10.0994 4.00867 10.0915 4.00867C10.0835 4.00867 10.0759 4.01183 10.0703 4.01745C10.0646 4.02308 10.0615 4.03071 10.0615 4.03867C10.0615 4.04662 10.0646 4.05425 10.0703 4.05988C10.0759 4.0655 10.0835 4.06867 10.0915 4.06867ZM9.92815 4.03867C9.92809 4.06627 9.93503 4.09344 9.94831 4.11764C9.9616 4.14184 9.9808 4.16228 10.0041 4.17704C10.0275 4.19181 10.0541 4.20042 10.0817 4.20207C10.1093 4.20373 10.1368 4.19837 10.1617 4.1865C10.1866 4.17463 10.2081 4.15664 10.2242 4.1342C10.2403 4.11177 10.2504 4.08562 10.2537 4.0582C10.2569 4.03079 10.2532 4.003 10.2428 3.97743C10.2323 3.95186 10.2156 3.92935 10.1942 3.912C10.2186 3.91103 10.2426 3.90457 10.2642 3.89309C10.2858 3.88161 10.3046 3.86542 10.3192 3.8457C10.3337 3.82598 10.3436 3.80325 10.3482 3.77918C10.3527 3.75511 10.3518 3.73033 10.3455 3.70667C10.3824 3.69175 10.4126 3.66388 10.4304 3.62828C10.4482 3.59268 10.4524 3.5518 10.4422 3.51333C10.4792 3.49751 10.5091 3.46857 10.5261 3.43206C10.5431 3.39554 10.546 3.35404 10.5342 3.31551C10.5225 3.27699 10.4969 3.24415 10.4625 3.22333C10.428 3.2025 10.3871 3.19514 10.3475 3.20267C10.3941 3.15157 10.4185 3.08405 10.4153 3.01498C10.4121 2.9459 10.3816 2.88092 10.3305 2.83433C10.2794 2.78774 10.2119 2.76336 10.1428 2.76655C10.0737 2.76974 10.0087 2.80023 9.96215 2.85133C9.95775 2.82634 9.94758 2.80272 9.93245 2.78235C9.91732 2.76197 9.89766 2.7454 9.87501 2.73395C9.85237 2.72249 9.82737 2.71648 9.80199 2.71637C9.77661 2.71626 9.75156 2.72207 9.72882 2.73333C9.72089 2.70879 9.70727 2.68648 9.68906 2.66822C9.67085 2.64995 9.64857 2.63626 9.62406 2.62826C9.59954 2.62026 9.57348 2.61818 9.548 2.62219C9.52253 2.6262 9.49836 2.63619 9.47749 2.65133C9.47096 2.62102 9.45594 2.5932 9.43419 2.57111C9.41244 2.54902 9.38485 2.53358 9.35465 2.52659C9.32444 2.51959 9.29287 2.52134 9.26363 2.53163C9.23438 2.54191 9.20867 2.56031 9.18949 2.58467C9.18453 2.55343 9.17061 2.5243 9.14941 2.50082C9.12822 2.47735 9.10067 2.46053 9.0701 2.45241C9.03953 2.44429 9.00726 2.44522 8.97721 2.45509C8.94716 2.46496 8.92062 2.48334 8.90082 2.508L8.90149 2.49267C8.90139 2.4618 8.89256 2.43159 8.876 2.40554C8.85944 2.37949 8.83584 2.35866 8.80793 2.34548C8.78002 2.33229 8.74895 2.32728 8.71831 2.33103C8.68767 2.33478 8.65872 2.34714 8.63482 2.36667C8.62276 2.34801 8.60702 2.33201 8.58856 2.31965C8.57011 2.30729 8.54932 2.29882 8.52748 2.29476C8.50564 2.29071 8.4832 2.29115 8.46154 2.29606C8.43988 2.30097 8.41944 2.31025 8.40149 2.32333C8.38658 2.29335 8.36283 2.26868 8.33343 2.25265C8.30404 2.23662 8.27043 2.23001 8.23716 2.23371C8.20388 2.23742 8.17255 2.25126 8.1474 2.27336C8.12226 2.29546 8.10451 2.32476 8.09656 2.35728C8.08862 2.3898 8.09086 2.42398 8.10298 2.45519C8.11511 2.4864 8.13653 2.51313 8.16435 2.53175C8.19216 2.55038 8.22503 2.56001 8.25851 2.55934C8.29198 2.55867 8.32444 2.54773 8.35149 2.528C8.36244 2.54999 8.37821 2.56923 8.39762 2.58429C8.41704 2.59934 8.4396 2.60982 8.46363 2.61495C8.48765 2.62007 8.51253 2.61971 8.5364 2.61389C8.56027 2.60807 8.58252 2.59694 8.60149 2.58133C8.61556 2.60293 8.63456 2.6209 8.65691 2.63375C8.67926 2.6466 8.70434 2.65398 8.73009 2.65528C8.75584 2.65658 8.78153 2.65177 8.80507 2.64123C8.8286 2.6307 8.8493 2.61474 8.86549 2.59467V2.61C8.86565 2.64384 8.87632 2.67679 8.89602 2.70431C8.91573 2.73182 8.94349 2.75253 8.97547 2.76359C9.00746 2.77464 9.04209 2.77548 9.07457 2.766C9.10706 2.75652 9.1358 2.73719 9.15682 2.71067C9.16126 2.73733 9.17126 2.76133 9.18682 2.78267C9.16573 2.81048 9.15432 2.84443 9.15432 2.87933C9.15432 2.91424 9.16573 2.94818 9.18682 2.976C9.16171 3.00968 9.15066 3.05179 9.15601 3.09346C9.16136 3.13513 9.18268 3.17309 9.21549 3.19933C9.19103 3.20023 9.16708 3.20661 9.14542 3.21801C9.12376 3.2294 9.10494 3.24552 9.09035 3.26517C9.07575 3.28482 9.06577 3.3075 9.06112 3.33153C9.05647 3.35556 9.05728 3.38032 9.06349 3.404C9.02658 3.41891 8.9964 3.44679 8.9786 3.48239C8.9608 3.51799 8.95661 3.55886 8.96682 3.59733C8.93779 3.60926 8.91281 3.62931 8.89487 3.65507C8.87693 3.68083 8.8668 3.71121 8.86568 3.74258C8.86456 3.77395 8.87251 3.80498 8.88856 3.83195C8.90462 3.85893 8.92811 3.8807 8.95622 3.89467C8.98433 3.90864 9.01587 3.91421 9.04706 3.91073C9.07826 3.90724 9.10779 3.89483 9.13212 3.875C9.15645 3.85516 9.17455 3.82874 9.18425 3.79888C9.19395 3.76903 9.19484 3.73701 9.18682 3.70667C9.2236 3.69163 9.25364 3.66371 9.27131 3.62812C9.28898 3.59253 9.29307 3.55172 9.28282 3.51333C9.30913 3.50269 9.33221 3.48539 9.34979 3.46311C9.36738 3.44084 9.37885 3.41437 9.38309 3.38631C9.38733 3.35825 9.38419 3.32957 9.37397 3.3031C9.36375 3.27662 9.34681 3.25327 9.32482 3.23533C9.35447 3.2342 9.38326 3.22501 9.40808 3.20875C9.4329 3.19249 9.45283 3.16977 9.46572 3.14304C9.4786 3.11631 9.48396 3.08657 9.48122 3.05703C9.47848 3.02748 9.46774 2.99924 9.45015 2.97533C9.46293 2.95779 9.472 2.93783 9.47682 2.91667C9.50095 2.93456 9.52962 2.9453 9.55957 2.94766C9.58952 2.95002 9.61952 2.9439 9.64615 2.93C9.65859 2.96799 9.68453 3.0001 9.71905 3.02025C9.75358 3.0404 9.79429 3.04719 9.83349 3.03933C9.83725 3.06063 9.84521 3.08096 9.8569 3.09915C9.86859 3.11734 9.88377 3.13304 9.90157 3.14531C9.91937 3.15759 9.93943 3.16622 9.96059 3.17068C9.98174 3.17515 10.0036 3.17537 10.0248 3.17133C10.0252 3.19532 10.0309 3.21893 10.0414 3.24048C10.052 3.26203 10.0672 3.28099 10.0859 3.29601C10.1046 3.31103 10.1264 3.32174 10.1497 3.32739C10.173 3.33303 10.1973 3.33347 10.2208 3.32867C10.2157 3.3536 10.2164 3.37937 10.2228 3.404C10.186 3.41903 10.156 3.44696 10.1383 3.48255C10.1207 3.51814 10.1166 3.55894 10.1268 3.59733C10.1005 3.60797 10.0774 3.62528 10.0598 3.64755C10.0423 3.66983 10.0308 3.6963 10.0265 3.72436C10.0223 3.75242 10.0255 3.78109 10.0357 3.80757C10.0459 3.83404 10.0628 3.8574 10.0848 3.87533C10.0425 3.87689 10.0025 3.89478 9.97319 3.92524C9.94384 3.95571 9.92812 3.99637 9.92815 4.03867ZM9.41282 2.81867C9.42149 2.85867 9.44482 2.89333 9.47682 2.91667C9.48236 2.89365 9.48272 2.86969 9.47787 2.84652C9.47303 2.82335 9.46311 2.80154 9.44882 2.78267C9.46284 2.76416 9.47266 2.74283 9.47761 2.72016C9.48256 2.69748 9.48252 2.67399 9.47749 2.65133C9.4454 2.67469 9.42271 2.70873 9.41349 2.74733C9.38571 2.7268 9.35203 2.71581 9.31749 2.716C9.32143 2.716 9.32533 2.71522 9.32897 2.71372C9.33261 2.71221 9.33591 2.71 9.3387 2.70721C9.34149 2.70443 9.34369 2.70112 9.3452 2.69748C9.34671 2.69384 9.34749 2.68994 9.34749 2.686C9.34749 2.68206 9.34671 2.67816 9.3452 2.67452C9.34369 2.67088 9.34149 2.66757 9.3387 2.66479C9.33591 2.662 9.33261 2.65979 9.32897 2.65828C9.32533 2.65677 9.32143 2.656 9.31749 2.656C9.30953 2.656 9.3019 2.65916 9.29627 2.66479C9.29065 2.67041 9.28749 2.67804 9.28749 2.686C9.28749 2.69396 9.29065 2.70159 9.29627 2.70721C9.3019 2.71284 9.30953 2.716 9.31749 2.716C9.29195 2.71631 9.26683 2.72248 9.24406 2.73404C9.22128 2.7456 9.20214 2.76223 9.18682 2.78267C9.21615 2.82267 9.26349 2.84933 9.31749 2.84933C9.30953 2.84933 9.3019 2.85249 9.29627 2.85812C9.29065 2.86375 9.28749 2.87138 9.28749 2.87933C9.28749 2.88729 9.29065 2.89492 9.29627 2.90055C9.3019 2.90617 9.30953 2.90933 9.31749 2.90933C9.29195 2.90964 9.26683 2.91581 9.24406 2.92737C9.22128 2.93893 9.20214 2.95557 9.18682 2.976C9.21615 3.016 9.26349 3.04267 9.31749 3.04267C9.30953 3.04267 9.3019 3.04583 9.29627 3.05145C9.29065 3.05708 9.28749 3.06471 9.28749 3.07267C9.28749 3.08062 9.29065 3.08825 9.29627 3.09388C9.3019 3.09951 9.30953 3.10267 9.31749 3.10267C9.32544 3.10267 9.33307 3.09951 9.3387 3.09388C9.34433 3.08825 9.34749 3.08062 9.34749 3.07267C9.34749 3.06471 9.34433 3.05708 9.3387 3.05145C9.33307 3.04583 9.32544 3.04267 9.31749 3.04267C9.37149 3.04267 9.41949 3.016 9.44882 2.976C9.4335 2.95557 9.41369 2.93893 9.39092 2.92737C9.36815 2.91581 9.34302 2.90964 9.31749 2.90933C9.32544 2.90933 9.33307 2.90617 9.3387 2.90055C9.34433 2.89492 9.34749 2.88729 9.34749 2.87933C9.34749 2.87138 9.34433 2.86375 9.3387 2.85812C9.33307 2.85249 9.32544 2.84933 9.31749 2.84933C9.35173 2.84957 9.38514 2.83883 9.41282 2.81867ZM9.41282 2.81867C9.4263 2.80825 9.4384 2.79615 9.44882 2.78267C9.43857 2.76946 9.42669 2.75759 9.41349 2.74733C9.4079 2.77076 9.40767 2.79514 9.41282 2.81867ZM9.18682 3.70667C9.18088 3.68418 9.16953 3.66322 9.15484 3.64519C9.14014 3.62717 9.12176 3.61249 9.10093 3.60214C9.0801 3.59179 9.05731 3.586 9.03406 3.58517C9.01082 3.58435 8.98833 3.58849 8.96682 3.59733C8.97276 3.61982 8.98277 3.64078 8.99747 3.6588C9.01217 3.67683 9.03055 3.69151 9.05137 3.70186C9.0722 3.71221 9.095 3.71799 9.11824 3.71882C9.14149 3.71965 9.16531 3.71551 9.18682 3.70667ZM9.28282 3.51333C9.27686 3.49093 9.26553 3.47005 9.25088 3.45209C9.23623 3.43412 9.21792 3.41948 9.19718 3.40914C9.17643 3.3988 9.15372 3.39299 9.13055 3.3921C9.10739 3.39122 9.0843 3.39527 9.06282 3.404C9.0687 3.42646 9.07931 3.44741 9.09393 3.46545C9.10855 3.48349 9.12685 3.49821 9.1476 3.50862C9.16836 3.51903 9.19109 3.52489 9.2143 3.52582C9.2375 3.52675 9.26063 3.52272 9.28215 3.514M9.32415 3.236C9.29501 3.21223 9.25842 3.19948 9.22082 3.2H9.21415C9.2432 3.22401 9.2798 3.237 9.31749 3.23667L9.32415 3.236ZM8.35082 2.52933C8.38213 2.50658 8.40435 2.47345 8.4135 2.43584C8.42266 2.39824 8.41817 2.3586 8.40082 2.324C8.36956 2.34664 8.34737 2.37965 8.33821 2.41714C8.32905 2.45464 8.33352 2.49483 8.35082 2.52933ZM8.60082 2.58133C8.63185 2.55595 8.65242 2.52 8.65857 2.48038C8.66472 2.44076 8.6567 2.40027 8.63482 2.36667C8.60378 2.39205 8.58255 2.428 8.5764 2.46762C8.57025 2.50724 8.57894 2.54773 8.60082 2.58133ZM8.90082 2.508C8.89775 2.53984 8.88521 2.57002 8.86482 2.59467C8.8677 2.5629 8.88067 2.53272 8.90082 2.508ZM9.15549 2.71067C9.16948 2.69326 9.17968 2.67311 9.18542 2.65153C9.19116 2.62994 9.19232 2.60739 9.18882 2.58533C9.17482 2.60274 9.16463 2.62288 9.15889 2.64447C9.15314 2.66606 9.15199 2.68861 9.15549 2.71067ZM9.64482 2.93067C9.67991 2.91311 9.70751 2.8835 9.72257 2.84727C9.73763 2.81103 9.73913 2.77059 9.72682 2.73333C9.69187 2.75087 9.66438 2.78036 9.64933 2.81645C9.63429 2.85254 9.63269 2.8935 9.64482 2.93067ZM9.83215 3.03867C9.87386 3.03026 9.91064 3.00591 9.93467 2.9708C9.9587 2.93569 9.96808 2.89259 9.96082 2.85067C9.91911 2.85907 9.88233 2.88342 9.8583 2.91853C9.83427 2.95364 9.82489 2.99674 9.83215 3.03867ZM10.2195 3.328C10.2505 3.32113 10.2788 3.30557 10.3013 3.28313C10.3237 3.26069 10.3393 3.23231 10.3462 3.20133C10.3152 3.2082 10.2868 3.22376 10.2644 3.2462C10.2419 3.26864 10.2264 3.29702 10.2195 3.328ZM10.1562 3.008V3.01067C10.1562 3.09067 10.0988 3.15733 10.0228 3.17067V3.16867C10.0228 3.08867 10.0808 3.022 10.1562 3.008ZM10.2215 3.40333C10.243 3.39438 10.2663 3.39018 10.2896 3.39099C10.3129 3.39181 10.3358 3.39763 10.3566 3.40807C10.3775 3.4185 10.3959 3.4333 10.4105 3.45146C10.4252 3.46963 10.4364 3.49073 10.4422 3.51333C10.4206 3.52228 10.3967 3.52649 10.3734 3.52567C10.3501 3.52485 10.3272 3.51903 10.3064 3.5086C10.2855 3.49816 10.2671 3.48336 10.2525 3.4652C10.2378 3.44704 10.2273 3.42594 10.2215 3.40333ZM10.1255 3.59667C10.1469 3.58794 10.17 3.58389 10.1931 3.58478C10.2162 3.58567 10.2389 3.59148 10.2596 3.60183C10.2803 3.61218 10.2985 3.62682 10.3131 3.64479C10.3277 3.66275 10.3383 3.68362 10.3442 3.706C10.3227 3.71472 10.2997 3.71878 10.2766 3.71789C10.2534 3.717 10.2308 3.71118 10.2101 3.70083C10.1894 3.69049 10.1711 3.67584 10.1565 3.65788C10.142 3.63991 10.1314 3.61905 10.1255 3.59667ZM10.1862 3.91133C10.1487 3.91151 10.1124 3.89853 10.0835 3.87467H10.0902C10.1297 3.87511 10.1639 3.88733 10.1928 3.91133H10.1862ZM10.1862 3.778C10.1901 3.778 10.194 3.77722 10.1976 3.77572C10.2013 3.77421 10.2046 3.772 10.2074 3.76921C10.2102 3.76643 10.2124 3.76312 10.2139 3.75948C10.2154 3.75584 10.2162 3.75194 10.2162 3.748C10.2162 3.74406 10.2154 3.74016 10.2139 3.73652C10.2124 3.73288 10.2102 3.72957 10.2074 3.72679C10.2046 3.724 10.2013 3.72179 10.1976 3.72028C10.194 3.71877 10.1901 3.718 10.1862 3.718C10.1782 3.718 10.1706 3.72116 10.1649 3.72679C10.1593 3.73241 10.1562 3.74004 10.1562 3.748C10.1562 3.75596 10.1593 3.76359 10.1649 3.76921C10.1706 3.77484 10.1782 3.778 10.1862 3.778ZM10.2828 3.58467C10.2908 3.58467 10.2984 3.5815 10.304 3.57588C10.3097 3.57025 10.3128 3.56262 10.3128 3.55467C10.3128 3.54671 10.3097 3.53908 10.304 3.53345C10.2984 3.52783 10.2908 3.52467 10.2828 3.52467C10.2749 3.52467 10.2672 3.52783 10.2616 3.53345C10.256 3.53908 10.2528 3.54671 10.2528 3.55467C10.2528 3.56262 10.256 3.57025 10.2616 3.57588C10.2672 3.5815 10.2749 3.58467 10.2828 3.58467ZM10.3795 3.39133C10.3874 3.39133 10.3951 3.38817 10.4007 3.38255C10.4063 3.37692 10.4095 3.36929 10.4095 3.36133C10.4095 3.35338 10.4063 3.34575 10.4007 3.34012C10.3951 3.33449 10.3874 3.33133 10.3795 3.33133C10.3715 3.33133 10.3639 3.33449 10.3583 3.34012C10.3526 3.34575 10.3495 3.35338 10.3495 3.36133C10.3495 3.36929 10.3526 3.37692 10.3583 3.38255C10.3639 3.38817 10.3715 3.39133 10.3795 3.39133ZM10.1862 3.198C10.1941 3.198 10.2017 3.19484 10.2074 3.18921C10.213 3.18359 10.2162 3.17596 10.2162 3.168C10.2162 3.16004 10.213 3.15241 10.2074 3.14679C10.2017 3.14116 10.1941 3.138 10.1862 3.138C10.1782 3.138 10.1706 3.14116 10.1649 3.14679C10.1593 3.15241 10.1562 3.16004 10.1562 3.168C10.1562 3.17596 10.1593 3.18359 10.1649 3.18921C10.1706 3.19484 10.1782 3.198 10.1862 3.198ZM9.99282 3.04067C10.0008 3.04067 10.0084 3.0375 10.014 3.03188C10.0197 3.02625 10.0228 3.01862 10.0228 3.01067C10.0228 3.00271 10.0197 2.99508 10.014 2.98945C10.0084 2.98383 10.0008 2.98067 9.99282 2.98067C9.98486 2.98067 9.97723 2.98383 9.97161 2.98945C9.96598 2.99508 9.96282 3.00271 9.96282 3.01067C9.96282 3.01862 9.96598 3.02625 9.97161 3.03188C9.97723 3.0375 9.98486 3.04067 9.99282 3.04067ZM9.79949 2.90867C9.80744 2.90867 9.81507 2.9055 9.8207 2.89988C9.82633 2.89425 9.82949 2.88662 9.82949 2.87867C9.82949 2.87071 9.82633 2.86308 9.8207 2.85745C9.81507 2.85183 9.80744 2.84867 9.79949 2.84867C9.79153 2.84867 9.7839 2.85183 9.77827 2.85745C9.77265 2.86308 9.76949 2.87071 9.76949 2.87867C9.76949 2.88662 9.77265 2.89425 9.77827 2.89988C9.7839 2.9055 9.79153 2.90867 9.79949 2.90867ZM9.57149 2.81333C9.57944 2.81333 9.58707 2.81017 9.5927 2.80455C9.59833 2.79892 9.60149 2.79129 9.60149 2.78333C9.60149 2.77538 9.59833 2.76775 9.5927 2.76212C9.58707 2.75649 9.57944 2.75333 9.57149 2.75333C9.56353 2.75333 9.5559 2.75649 9.55027 2.76212C9.54465 2.76775 9.54149 2.77538 9.54149 2.78333C9.54149 2.79129 9.54465 2.79892 9.55027 2.80455C9.5559 2.81017 9.56353 2.81333 9.57149 2.81333ZM9.02682 2.63933C9.03478 2.63933 9.04241 2.63617 9.04803 2.63055C9.05366 2.62492 9.05682 2.61729 9.05682 2.60933C9.05682 2.60138 9.05366 2.59375 9.04803 2.58812C9.04241 2.58249 9.03478 2.57933 9.02682 2.57933C9.01886 2.57933 9.01123 2.58249 9.00561 2.58812C8.99998 2.59375 8.99682 2.60138 8.99682 2.60933C8.99682 2.61729 8.99998 2.62492 9.00561 2.63055C9.01123 2.63617 9.01886 2.63933 9.02682 2.63933ZM8.73749 2.522C8.74143 2.522 8.74533 2.52122 8.74897 2.51972C8.75261 2.51821 8.75591 2.516 8.7587 2.51321C8.76149 2.51043 8.7637 2.50712 8.7652 2.50348C8.76671 2.49984 8.76749 2.49594 8.76749 2.492C8.76749 2.48806 8.76671 2.48416 8.7652 2.48052C8.7637 2.47688 8.76149 2.47357 8.7587 2.47079C8.75591 2.468 8.75261 2.46579 8.74897 2.46428C8.74533 2.46277 8.74143 2.462 8.73749 2.462C8.72953 2.462 8.7219 2.46516 8.71627 2.47079C8.71065 2.47641 8.70749 2.48404 8.70749 2.492C8.70749 2.49996 8.71065 2.50759 8.71627 2.51321C8.7219 2.51884 8.72953 2.522 8.73749 2.522ZM8.49615 2.48467C8.50411 2.48467 8.51174 2.4815 8.51737 2.47588C8.52299 2.47025 8.52615 2.46262 8.52615 2.45467C8.52615 2.44671 8.52299 2.43908 8.51737 2.43345C8.51174 2.42783 8.50411 2.42467 8.49615 2.42467C8.4882 2.42467 8.48057 2.42783 8.47494 2.43345C8.46931 2.43908 8.46615 2.44671 8.46615 2.45467C8.46615 2.46262 8.46931 2.47025 8.47494 2.47588C8.48057 2.4815 8.4882 2.48467 8.49615 2.48467ZM8.25415 2.42533C8.26211 2.42533 8.26974 2.42217 8.27537 2.41655C8.28099 2.41092 8.28415 2.40329 8.28415 2.39533C8.28415 2.38738 8.28099 2.37975 8.27537 2.37412C8.26974 2.36849 8.26211 2.36533 8.25415 2.36533C8.2462 2.36533 8.23857 2.36849 8.23294 2.37412C8.22731 2.37975 8.22415 2.38738 8.22415 2.39533C8.22415 2.40329 8.22731 2.41092 8.23294 2.41655C8.23857 2.42217 8.2462 2.42533 8.25415 2.42533ZM9.22082 3.392C9.22878 3.392 9.23641 3.38884 9.24203 3.38321C9.24766 3.37759 9.25082 3.36996 9.25082 3.362C9.25082 3.35404 9.24766 3.34641 9.24203 3.34079C9.23641 3.33516 9.22878 3.332 9.22082 3.332C9.21286 3.332 9.20523 3.33516 9.19961 3.34079C9.19398 3.34641 9.19082 3.35404 9.19082 3.362C9.19082 3.36996 9.19398 3.37759 9.19961 3.38321C9.20523 3.38884 9.21286 3.392 9.22082 3.392ZM9.12349 3.58533C9.13144 3.58533 9.13907 3.58217 9.1447 3.57655C9.15033 3.57092 9.15349 3.56329 9.15349 3.55533C9.15349 3.54738 9.15033 3.53975 9.1447 3.53412C9.13907 3.52849 9.13144 3.52533 9.12349 3.52533C9.11553 3.52533 9.1079 3.52849 9.10227 3.53412C9.09665 3.53975 9.09349 3.54738 9.09349 3.55533C9.09349 3.56329 9.09665 3.57092 9.10227 3.57655C9.1079 3.58217 9.11553 3.58533 9.12349 3.58533ZM9.02682 3.77867C9.03478 3.77867 9.04241 3.77551 9.04803 3.76988C9.05366 3.76425 9.05682 3.75662 9.05682 3.74867C9.05682 3.74071 9.05366 3.73308 9.04803 3.72745C9.04241 3.72183 9.03478 3.71867 9.02682 3.71867C9.01886 3.71867 9.01123 3.72183 9.00561 3.72745C8.99998 3.73308 8.99682 3.74071 8.99682 3.74867C8.99682 3.75662 8.99998 3.76425 9.00561 3.76988C9.01123 3.77551 9.01886 3.77867 9.02682 3.77867Z" fill="white"/>
<path fill-rule="evenodd" clip-rule="evenodd" d="M7.40465 1.43604L7.26131 1.4387V1.67404H6.99731L6.99998 1.8167H7.26131V2.08537L7.40531 2.0827V1.8167H7.66531L7.66198 1.67404H7.40465V1.43604Z" fill="#F6C540"/>
<path fill-rule="evenodd" clip-rule="evenodd" d="M3.86011 5.82263H10.7934V11.712C10.7934 11.712 10.5834 14.6453 7.32677 14.6453C4.06944 14.6453 3.86011 11.712 3.86011 11.712V5.82263Z" fill="#C51918"/>
<path fill-rule="evenodd" clip-rule="evenodd" d="M5.95263 6.02661C5.88863 6.02661 5.79063 6.07194 5.6613 6.12394C5.5313 6.17528 5.3953 6.28728 5.52797 6.39928C5.6613 6.51061 5.8513 6.75594 5.8513 6.66461C5.8513 6.57261 6.0793 6.48394 6.0793 6.52794C6.0793 6.57194 6.00863 6.66461 6.1933 6.66461C6.37797 6.66461 6.4733 6.71928 6.27597 6.71928C6.0793 6.71928 6.0573 6.80928 5.9293 6.80928C5.8013 6.80928 5.52797 6.71861 5.52797 6.66461C5.52797 6.61061 5.68663 6.92928 5.8513 6.92928C6.01663 6.92928 6.11063 7.08461 6.1933 7.00728C6.27597 6.92928 6.26663 6.92928 6.39997 6.92928C6.5333 6.92928 6.48463 6.61594 6.48463 6.61594C6.48463 6.61594 6.01597 6.02661 5.95263 6.02661ZM8.62797 6.02661C8.6913 6.02661 8.7893 6.07194 8.9193 6.12394C9.04863 6.17528 9.1853 6.28728 9.05263 6.39928C8.9193 6.51061 8.72863 6.75594 8.72863 6.66461C8.72863 6.57261 8.50197 6.48394 8.50197 6.52794C8.50197 6.57194 8.57197 6.66461 8.3873 6.66461C8.20263 6.66461 8.1073 6.71928 8.30397 6.71928C8.5013 6.71928 8.52263 6.80928 8.65063 6.80928C8.7793 6.80928 9.05197 6.71861 9.05197 6.66461C9.05197 6.61061 8.89397 6.92928 8.72863 6.92928C8.56397 6.92928 8.46997 7.08461 8.3873 7.00728C8.30397 6.92928 8.31397 6.92928 8.18063 6.92928C8.04663 6.92928 8.0953 6.61594 8.0953 6.61594C8.0953 6.61594 8.56397 6.02661 8.62797 6.02661Z" fill="#E8AA00"/>
<path fill-rule="evenodd" clip-rule="evenodd" d="M9.4782 6.66661C9.61153 6.97661 8.5922 8.12795 8.5922 8.12795H8.47887C8.43087 8.12795 8.34153 8.00995 8.23353 7.86795C8.15831 7.76507 8.07822 7.66585 7.99353 7.57061C7.8362 7.40061 7.91953 7.25728 7.99753 7.12395C8.02242 7.0835 8.04353 7.0435 8.06087 7.00395C8.0942 6.91728 8.09953 6.88395 8.10487 6.84395C8.1102 6.80661 8.1162 6.76395 8.14953 6.66661C8.19887 6.52328 8.36953 6.33861 8.4882 6.21061C8.52514 6.17358 8.55986 6.1344 8.5922 6.09328C8.6562 6.00795 8.60753 6.00861 8.47553 6.00995H8.41553C8.23953 6.00995 7.9022 6.09328 7.80087 6.18995C7.70087 6.28661 7.5942 6.30728 7.43887 6.30728C7.28353 6.30728 7.37953 6.41195 7.52087 6.48261C7.36887 6.51128 7.27087 6.76528 7.2142 6.99061C7.1822 6.76528 7.11353 6.51128 6.96087 6.48261C7.10287 6.41195 7.1982 6.30728 7.04287 6.30728C6.88753 6.30728 6.7822 6.28661 6.68087 6.18995C6.5802 6.09328 6.24287 6.00995 6.0662 6.00995H6.00687C5.8742 6.00861 5.8262 6.00795 5.88953 6.09328C5.90953 6.11995 5.94753 6.16128 5.99353 6.21061C6.1122 6.33861 6.28353 6.52395 6.33287 6.66661C6.3662 6.76395 6.3722 6.80661 6.37753 6.84395C6.38287 6.88395 6.38753 6.91728 6.42153 7.00395C6.43753 7.04328 6.46087 7.08328 6.48487 7.12395C6.56287 7.25728 6.6462 7.40061 6.4882 7.57061C6.40487 7.66128 6.3222 7.77061 6.2482 7.86795C6.14087 8.00995 6.05153 8.12795 6.00353 8.12795H5.8902C5.8902 8.12795 4.8702 6.97661 5.00353 6.66661C5.05553 6.54661 5.1382 6.43395 5.20687 6.34061C5.31553 6.19261 5.3882 6.09328 5.2422 6.09328C5.0042 6.09328 4.0542 6.69528 4.0542 8.05328C4.0542 9.41128 4.14153 10.1839 4.34553 10.7253C4.4842 11.0946 4.35687 11.4533 4.2622 11.7206C4.2182 11.8446 4.18087 11.9493 4.18087 12.0259C4.18087 12.2679 4.55487 12.0559 4.55487 11.9046C4.55487 11.8333 4.6062 11.9399 4.6602 12.0526C4.71887 12.1759 4.78153 12.3059 4.78153 12.2099C4.78153 12.1073 4.84153 11.9986 4.89353 11.9033C4.93487 11.8273 4.9722 11.7599 4.9722 11.7099C4.9722 11.6599 5.0242 11.6619 5.08287 11.6633C5.15753 11.6666 5.24287 11.6699 5.24287 11.5666C5.24287 11.4973 5.26953 11.4833 5.30287 11.4666C5.3582 11.4373 5.43153 11.3999 5.43153 11.0886C5.43153 10.8579 5.47753 10.9399 5.5302 11.0333C5.57887 11.1199 5.63353 11.2159 5.66353 11.0886C5.6662 11.0766 5.69687 11.0226 5.7342 10.9566C5.78953 10.8606 5.8602 10.7373 5.8822 10.6753C5.81113 10.9238 5.69547 11.1574 5.54087 11.3646C5.43153 11.5046 5.2422 11.8079 5.2422 11.8079C5.2422 11.8079 5.4182 11.9066 5.54087 11.8079C5.60953 11.7533 5.6142 11.8053 5.61887 11.8613C5.62287 11.9059 5.62687 11.9533 5.66353 11.9533C5.68664 11.9542 5.70753 11.9564 5.7262 11.9599C5.73998 11.9631 5.75264 11.9648 5.7642 11.9653C5.72353 12.0693 5.68687 12.2359 5.80953 12.1246C5.89753 12.0446 5.95887 12.0126 5.99953 11.9913C6.04687 11.9666 6.0662 11.9566 6.0662 11.9046C6.0662 11.8533 6.08553 11.8713 6.11553 11.8979C6.14153 11.9219 6.17553 11.9533 6.21287 11.9533C6.2602 11.9533 6.2702 11.8866 6.28487 11.7906C6.2942 11.7259 6.3062 11.6473 6.33287 11.5666L6.3502 11.5126C6.40353 11.3459 6.4282 11.2679 6.4882 11.4786C6.51687 11.5766 6.56687 11.6459 6.6102 11.7066C6.66953 11.7886 6.71687 11.8546 6.68087 11.9533C6.66709 11.9919 6.65042 12.0351 6.63087 12.0826C6.56687 12.2426 6.4882 12.4393 6.4882 12.5946C6.4882 12.6866 6.40487 12.8119 6.3262 12.9299C6.23353 13.0679 6.1482 13.1966 6.21287 13.2479C6.33287 13.3433 6.18753 13.6646 6.0662 13.8293C5.94487 13.9946 5.96487 14.1959 6.14887 14.1959C6.24887 14.1959 6.3042 14.2326 6.35353 14.2653C6.3942 14.2926 6.43153 14.3179 6.4882 14.3179C6.55797 14.321 6.62652 14.299 6.68153 14.2559C6.68153 14.2559 6.75887 14.3733 6.8882 14.3733C7.01687 14.3733 7.04287 14.2559 7.04287 14.2559L7.1382 14.3733L7.14553 13.8593V14.3726L7.43887 14.2559C7.43887 14.2559 7.46553 14.3733 7.5942 14.3733C7.72353 14.3733 7.80087 14.2559 7.80087 14.2559C7.80087 14.2559 7.86753 14.3179 7.9942 14.3179C8.05087 14.3179 8.08753 14.2926 8.12887 14.2653C8.1875 14.2201 8.2595 14.1957 8.33353 14.1959C8.51687 14.1959 8.53753 13.9946 8.41553 13.8293C8.29487 13.6646 8.14953 13.3426 8.26887 13.2479C8.3342 13.1959 8.24887 13.0679 8.1562 12.9299C8.07753 12.8119 7.99353 12.6866 7.99353 12.5946C7.99353 12.4393 7.91487 12.2426 7.85087 12.0826C7.83175 12.0355 7.81509 11.9924 7.80087 11.9533C7.76553 11.8546 7.81287 11.7886 7.8722 11.7066C7.91553 11.6459 7.96553 11.5766 7.99353 11.4786C8.05353 11.2679 8.07887 11.3453 8.1322 11.5119L8.14953 11.5666C8.1762 11.6473 8.18753 11.7259 8.19753 11.7906C8.21153 11.8866 8.22153 11.9533 8.26953 11.9533C8.3062 11.9533 8.34087 11.9219 8.36687 11.8979C8.39687 11.8713 8.41553 11.8533 8.41553 11.9046C8.41553 11.9566 8.43553 11.9666 8.4822 11.9913C8.52353 12.0126 8.58487 12.0446 8.6722 12.1246C8.79553 12.2353 8.75887 12.0693 8.7182 11.9653C8.72887 11.9648 8.74153 11.9631 8.7562 11.9599C8.77697 11.9567 8.79788 11.9545 8.81887 11.9533C8.85487 11.9533 8.85887 11.9059 8.86353 11.8613C8.8682 11.8053 8.87287 11.7533 8.94153 11.8079C9.06353 11.9066 9.2402 11.8079 9.2402 11.8079C9.2402 11.8079 9.05087 11.5046 8.94153 11.3646C8.78669 11.1575 8.67081 10.9239 8.59953 10.6753C8.6222 10.7373 8.69287 10.8606 8.74753 10.9566C8.78553 11.0233 8.8162 11.0766 8.81887 11.0886C8.8482 11.2159 8.90287 11.1199 8.9522 11.0333C9.00487 10.9399 9.05087 10.8579 9.05087 11.0886C9.05087 11.3999 9.1242 11.4373 9.17953 11.4659C9.21287 11.4833 9.23953 11.4973 9.23953 11.5659C9.23953 11.6693 9.32487 11.6659 9.39953 11.6639C9.45753 11.6619 9.5102 11.6599 9.5102 11.7106C9.5102 11.7599 9.54753 11.8273 9.58887 11.9026C9.64087 11.9986 9.70087 12.1073 9.70087 12.2099C9.70087 12.3066 9.76287 12.1766 9.8222 12.0526C9.87553 11.9399 9.92753 11.8326 9.92753 11.9046C9.92753 12.0559 10.3009 12.2679 10.3009 12.0259C10.3009 11.9493 10.2642 11.8446 10.2202 11.7206C10.1249 11.4533 9.99753 11.0946 10.1369 10.7253C10.3402 10.1839 10.4282 9.41195 10.4282 8.05328C10.4282 6.69528 9.4782 6.09328 9.2402 6.09328C9.09353 6.09328 9.16687 6.19261 9.27553 6.34061C9.3442 6.43395 9.42687 6.54728 9.4782 6.66728M8.6722 11.9059C8.6722 11.8719 8.69553 11.9093 8.7182 11.9653C8.68953 11.9659 8.6722 11.9553 8.6722 11.9059ZM5.7642 11.9653C5.7922 11.9659 5.80953 11.9553 5.80953 11.9059C5.80953 11.8719 5.7862 11.9093 5.7642 11.9653Z" fill="#F7FCFF"/>
<path fill-rule="evenodd" clip-rule="evenodd" d="M5.46269 12.8013C5.46269 12.708 5.70269 12.49 5.70269 12.49V12.5087C5.73602 12.5353 5.95002 12.7127 5.95002 12.7987C5.95002 12.852 5.92269 12.93 5.89869 12.9967C5.88261 13.0337 5.8714 13.0727 5.86536 13.1127C5.86536 13.1273 5.87202 13.1167 5.88336 13.096C5.91336 13.0447 5.97736 12.934 6.06736 13.008C6.18669 13.1067 6.18602 13.2513 6.18536 13.3433V13.3593C6.18536 13.388 6.18536 13.388 6.18136 13.374C6.17336 13.3447 6.14802 13.2533 6.06802 13.2533C5.95002 13.2533 5.86536 13.3593 5.86536 13.3593V13.5407C5.86536 13.5407 5.88002 13.6907 5.95002 13.6153C6.02002 13.5407 6.03469 13.708 5.95002 13.708C5.90669 13.708 5.86202 13.754 5.81869 13.7987C5.77669 13.842 5.73602 13.884 5.69802 13.884V13.8693C5.66202 13.866 5.63136 13.8293 5.60136 13.7913C5.56802 13.75 5.53469 13.708 5.49136 13.708C5.40669 13.708 5.42202 13.5413 5.49136 13.6153C5.56136 13.6907 5.57669 13.5407 5.57669 13.5407V13.3593C5.57669 13.3593 5.49136 13.2527 5.37402 13.2527C5.29402 13.2527 5.26869 13.3447 5.26069 13.374C5.25669 13.3873 5.25669 13.388 5.25669 13.3593V13.3433C5.25602 13.2513 5.25536 13.1067 5.37402 13.008C5.46402 12.934 5.52869 13.0447 5.55802 13.096C5.57002 13.116 5.57669 13.1273 5.57669 13.1127C5.56787 13.0721 5.5528 13.0332 5.53202 12.9973C5.50002 12.932 5.46269 12.8547 5.46269 12.8013ZM8.65069 12.8013C8.65069 12.708 8.89069 12.49 8.89069 12.49V12.5087C8.92403 12.5353 9.13869 12.7127 9.13869 12.7987C9.13869 12.852 9.11069 12.93 9.08736 12.9967C9.07127 13.0337 9.06007 13.0727 9.05403 13.1127C9.05403 13.1273 9.06002 13.1167 9.07202 13.096C9.10136 13.0447 9.16536 12.934 9.25602 13.008C9.37469 13.1067 9.37402 13.2513 9.37402 13.3433V13.3593C9.37402 13.388 9.37403 13.388 9.37003 13.374C9.36136 13.3447 9.33602 13.2533 9.25602 13.2533C9.13869 13.2533 9.05403 13.3593 9.05403 13.3593V13.5407C9.05403 13.5407 9.06869 13.6907 9.13869 13.6153C9.20869 13.5407 9.22336 13.708 9.13869 13.708C9.09536 13.708 9.05069 13.754 9.00736 13.7987C8.96536 13.842 8.92469 13.884 8.88603 13.884V13.8693C8.85003 13.866 8.82003 13.8293 8.79003 13.7913C8.75669 13.75 8.72336 13.708 8.68003 13.708C8.59536 13.708 8.61003 13.5413 8.68003 13.6153C8.75003 13.6907 8.76469 13.5407 8.76469 13.5407V13.3593C8.76469 13.3593 8.68002 13.2527 8.56269 13.2527C8.48269 13.2527 8.45669 13.3447 8.44936 13.374C8.44469 13.3873 8.44469 13.388 8.44469 13.3593V13.3433C8.44469 13.2513 8.44336 13.1067 8.56269 13.008C8.65269 12.934 8.71669 13.0447 8.74669 13.096C8.75869 13.116 8.76469 13.1273 8.76469 13.1127C8.75587 13.0721 8.7408 13.0332 8.72002 12.9973C8.68802 12.932 8.65069 12.8547 8.65069 12.8013Z" fill="#E8AA00"/>
<path fill-rule="evenodd" clip-rule="evenodd" d="M5.22348 12.24C5.43748 12.24 5.48081 11.8333 5.48081 11.8333C5.48081 11.8333 5.66014 11.6473 5.66014 11.7846C5.66014 11.858 5.60881 11.9493 5.57014 12.0193C5.53681 12.0806 5.51214 12.1253 5.53881 12.1253H5.83481C6.07881 12.1253 5.79214 12.2393 5.66014 12.2906C5.60014 12.3133 5.55748 12.3253 5.51681 12.3373C5.46814 12.3506 5.42148 12.364 5.35014 12.3953C5.21948 12.452 5.16348 12.8246 5.22348 12.9446C5.28481 13.0646 5.16348 13.014 5.11348 12.9446C5.08548 12.906 5.06481 12.9593 5.03681 13.0326C5.0158 13.0974 4.985 13.1585 4.94548 13.2139C4.86614 13.3099 4.86748 13.2253 4.86881 13.0426L4.86948 12.9446C4.86948 12.7826 4.90214 12.7813 4.95014 12.7793C4.98142 12.7804 5.0121 12.7705 5.03681 12.7513C5.10614 12.696 5.11481 12.6673 5.13548 12.5959C5.1417 12.5724 5.15103 12.5424 5.16348 12.506C5.21348 12.3613 4.94548 12.5906 4.87014 12.6993C4.82348 12.7653 4.79148 12.7726 4.74348 12.7833C4.70178 12.7915 4.66141 12.8054 4.62348 12.8246C4.53881 12.868 4.56214 12.7833 4.59014 12.6806C4.60614 12.622 4.62348 12.5566 4.62348 12.506C4.62348 12.4193 4.67614 12.4413 4.74348 12.47C4.78288 12.4903 4.82595 12.5025 4.87014 12.506C4.97748 12.506 5.03348 12.4606 5.10214 12.4046L5.11348 12.3953C5.16814 12.3506 5.04814 12.364 4.90481 12.38L4.75614 12.3953C4.64614 12.4046 4.63881 12.3973 4.61148 12.3726C4.57096 12.3376 4.52473 12.3099 4.47481 12.2906C4.26814 12.2006 4.60814 12.2393 4.75614 12.2906C4.83881 12.3186 4.90814 12.3 4.98948 12.2773C5.05614 12.2593 5.12948 12.2393 5.22414 12.2393M9.36814 12.2393C9.15481 12.2393 9.11081 11.8326 9.11081 11.8326C9.11081 11.8326 8.93214 11.6466 8.93214 11.784C8.93214 11.8573 8.98281 11.9486 9.02148 12.0186C9.05548 12.08 9.08014 12.1246 9.05281 12.1246H8.75681C8.51348 12.1246 8.80014 12.2386 8.93214 12.2899C8.99214 12.3126 9.03414 12.3246 9.07481 12.3366C9.12414 12.3499 9.17014 12.3633 9.24148 12.3946C9.37214 12.4513 9.42814 12.824 9.36814 12.944C9.30814 13.064 9.42814 13.0133 9.47881 12.944C9.50614 12.9053 9.52681 12.9586 9.55481 13.032C9.57748 13.0913 9.60548 13.164 9.64614 13.2133C9.72548 13.3093 9.72481 13.2246 9.72281 13.042L9.72214 12.944C9.72214 12.782 9.68948 12.7806 9.64214 12.7786C9.61041 12.7801 9.5792 12.7701 9.55414 12.7506C9.48548 12.6953 9.47748 12.6666 9.45681 12.5953L9.42814 12.5053C9.37814 12.3606 9.64614 12.59 9.72214 12.6986C9.76881 12.7646 9.80014 12.772 9.84881 12.7826C9.87948 12.7893 9.91681 12.798 9.96881 12.824C10.0528 12.8673 10.0301 12.7826 10.0021 12.68C9.98328 12.6235 9.97207 12.5647 9.96881 12.5053C9.96881 12.4186 9.91548 12.4406 9.84881 12.4693C9.8094 12.4896 9.76634 12.5018 9.72214 12.5053C9.61414 12.5053 9.55881 12.46 9.48948 12.404L9.47881 12.3946C9.42348 12.3499 9.54348 12.3633 9.68681 12.3793C9.73703 12.3855 9.78659 12.3906 9.83548 12.3946C9.94614 12.4039 9.95348 12.3966 9.98081 12.372C10.0211 12.337 10.0671 12.3093 10.1168 12.2899C10.3235 12.1999 9.98414 12.2386 9.83548 12.2899C9.75348 12.3179 9.68414 12.2993 9.60214 12.2766C9.52625 12.2533 9.44751 12.2412 9.36814 12.2393Z" fill="#E8AA00"/>
<path fill-rule="evenodd" clip-rule="evenodd" d="M6.03467 8.22729H8.61867V10.584C8.61867 10.584 8.34133 11.7573 7.32667 11.7573C6.312 11.7573 6.03467 10.584 6.03467 10.584V8.22729Z" fill="#C51918"/>
<path fill-rule="evenodd" clip-rule="evenodd" d="M7.67465 8.19336H6.99865V9.54603H6.03198V10.0287H6.99865V11.7687H7.67465V10.0287H8.64132V9.54603H7.67465V8.19336Z" fill="#F7FCFF"/>
<path fill-rule="evenodd" clip-rule="evenodd" d="M6.46997 8.87261C6.5353 8.87261 6.56664 8.81794 6.53197 8.76994C6.5268 8.7632 6.52036 8.75754 6.51301 8.75329C6.50566 8.74904 6.49754 8.74628 6.48912 8.74516C6.4807 8.74405 6.47214 8.7446 6.46394 8.7468C6.45573 8.74899 6.44804 8.75278 6.4413 8.75794L6.40397 8.74728C6.39088 8.7434 6.37692 8.74363 6.36397 8.74794C6.34797 8.75328 6.3393 8.73728 6.34664 8.63728C6.35397 8.60928 6.39197 8.59194 6.4813 8.59194C6.64397 8.59194 6.71064 8.60928 6.71064 8.62528V8.86394L6.63197 8.93528C6.59397 8.96928 6.62064 9.02861 6.67464 9.02861H6.71064V9.21128C6.66175 9.2495 6.6173 9.26839 6.5773 9.26794C6.43264 9.26794 6.35063 9.21328 6.34863 9.14928C6.34863 9.13061 6.3493 9.11661 6.35064 9.10728L6.3633 9.11194C6.37673 9.11632 6.39121 9.11632 6.40464 9.11194L6.40997 9.11061C6.41486 9.10839 6.41819 9.10772 6.41997 9.10861C6.42175 9.1095 6.42219 9.11616 6.4213 9.12861V9.14661C6.41997 9.17661 6.44664 9.20194 6.47997 9.20261C6.5133 9.20261 6.54064 9.17928 6.5413 9.14928C6.54397 9.04328 6.48463 8.98261 6.38663 9.00328C6.32863 8.98594 6.28797 8.98794 6.25664 9.02328C6.2333 9.04994 6.22997 9.07194 6.22797 9.14994C6.23197 9.28328 6.3733 9.37661 6.57797 9.37661C6.6659 9.37189 6.7492 9.33569 6.81263 9.27461C6.81842 9.26966 6.82308 9.26353 6.8263 9.25663C6.82952 9.24973 6.83123 9.24222 6.8313 9.23461V8.97328C6.83118 8.96471 6.82899 8.9563 6.82493 8.94876C6.82087 8.94121 6.81505 8.93476 6.80797 8.92994L6.81397 8.92461C6.81927 8.91977 6.82353 8.91391 6.82651 8.90738C6.82949 8.90085 6.83112 8.89378 6.8313 8.88661V8.62461C6.8313 8.51328 6.71597 8.48328 6.4813 8.48328C6.34264 8.48328 6.25197 8.52394 6.22797 8.62061C6.21464 8.78594 6.2633 8.88461 6.38397 8.85661C6.41202 8.86576 6.44117 8.87114 6.47064 8.87261M8.16797 8.76994C8.13397 8.81794 8.16464 8.87261 8.2293 8.87261C8.25877 8.87114 8.28792 8.86576 8.31597 8.85661C8.4373 8.88461 8.48597 8.78594 8.47264 8.62061C8.44797 8.52394 8.3573 8.48328 8.2193 8.48328C7.98397 8.48328 7.86864 8.51328 7.86864 8.62461V8.88661C7.86864 8.90128 7.87464 8.91394 7.88664 8.92461L7.89263 8.92994C7.88543 8.93469 7.87948 8.94111 7.8753 8.94865C7.87112 8.9562 7.86883 8.96465 7.86864 8.97328V9.23528C7.86864 9.25039 7.87486 9.2635 7.8873 9.27461C7.96508 9.34172 8.04352 9.37572 8.12264 9.37661C8.3273 9.37661 8.46797 9.28328 8.47264 9.14994C8.46997 9.07194 8.4673 9.04994 8.44397 9.02328C8.41197 8.98794 8.3713 8.98594 8.3133 9.00328C8.2153 8.98328 8.15597 9.04328 8.15864 9.14928C8.1593 9.17928 8.1873 9.20261 8.22064 9.20261C8.25397 9.20194 8.28063 9.17661 8.2793 9.14661V9.12861C8.27752 9.11616 8.27797 9.1095 8.28064 9.10861C8.28197 9.10772 8.28508 9.10839 8.28997 9.11061L8.29597 9.11194C8.3094 9.11632 8.32387 9.11632 8.3373 9.11194L8.34997 9.10728L8.35197 9.14928C8.3493 9.21328 8.26797 9.26794 8.12264 9.26794C8.08352 9.26839 8.03908 9.2495 7.9893 9.21128V9.02794H8.02597C8.0793 9.02794 8.10597 8.96928 8.06863 8.93461L7.9893 8.86394V8.62461C7.9893 8.60928 8.05597 8.59194 8.2193 8.59194C8.30797 8.59194 8.34597 8.60928 8.3533 8.63728C8.3613 8.73728 8.35197 8.75328 8.33664 8.74794C8.32362 8.74385 8.30965 8.74385 8.29663 8.74794L8.25864 8.75794L8.25197 8.75328C8.23824 8.74575 8.2223 8.74329 8.20694 8.74634C8.19158 8.74939 8.17778 8.75774 8.16797 8.76994ZM8.22997 10.6119C8.16464 10.6119 8.13397 10.5573 8.16797 10.5086C8.1785 10.4951 8.19396 10.4863 8.21096 10.4842C8.22796 10.4821 8.2451 10.4868 8.25864 10.4973L8.29597 10.4866C8.30899 10.4825 8.32295 10.4825 8.33597 10.4866C8.35197 10.4919 8.3613 10.4759 8.3533 10.3766C8.34663 10.3486 8.30797 10.3313 8.2193 10.3313C8.05597 10.3313 7.9893 10.3486 7.9893 10.3639V10.6026L8.06863 10.6739C8.10663 10.7086 8.0793 10.7673 8.02597 10.7673H7.9893V10.9499C8.03908 10.9882 8.08352 11.0071 8.12264 11.0066C8.26797 11.0066 8.3493 10.9533 8.35197 10.8886L8.34997 10.8466L8.33664 10.8506C8.32348 10.8551 8.30926 10.8553 8.29597 10.8513L8.28997 10.8493C8.28552 10.8475 8.28241 10.8471 8.28064 10.8479C8.27841 10.8488 8.27775 10.8555 8.27864 10.8679L8.2793 10.8859C8.27997 10.9159 8.2533 10.9406 8.22064 10.9413C8.1873 10.9419 8.1593 10.9186 8.15864 10.8879C8.15597 10.7826 8.2153 10.7219 8.3133 10.7426C8.3713 10.7253 8.41197 10.7273 8.44397 10.7626C8.46664 10.7893 8.47064 10.8106 8.47264 10.8893C8.46797 11.0226 8.3273 11.1159 8.12264 11.1159C8.03447 11.1114 7.95091 11.0752 7.8873 11.0139C7.88152 11.009 7.87686 11.0029 7.87364 10.996C7.87042 10.9891 7.86871 10.9816 7.86864 10.9739V10.7126C7.86883 10.704 7.87112 10.6955 7.8753 10.688C7.87948 10.6804 7.88543 10.674 7.89263 10.6693L7.88597 10.6639C7.88059 10.659 7.87628 10.6531 7.8733 10.6464C7.87032 10.6398 7.86873 10.6326 7.86864 10.6253V10.3639C7.86864 10.2519 7.98397 10.2219 8.21864 10.2219C8.3573 10.2219 8.44797 10.2633 8.47197 10.3599C8.48597 10.5253 8.4373 10.6239 8.31597 10.5953C8.28795 10.6046 8.2588 10.6103 8.2293 10.6119M6.47064 10.6119C6.5353 10.6119 6.56664 10.5573 6.53197 10.5086C6.52144 10.4951 6.50598 10.4863 6.48898 10.4842C6.47198 10.4821 6.45483 10.4868 6.4413 10.4973L6.40397 10.4866C6.39095 10.4825 6.37699 10.4825 6.36397 10.4866C6.34797 10.4919 6.3393 10.4759 6.34664 10.3766C6.35397 10.3486 6.39197 10.3313 6.4813 10.3313C6.64397 10.3313 6.71064 10.3486 6.71064 10.3639V10.6026L6.63197 10.6739C6.59397 10.7086 6.62064 10.7673 6.67464 10.7673H6.71064V10.9499C6.66175 10.9882 6.6173 11.0071 6.5773 11.0066C6.43264 11.0066 6.35063 10.9533 6.34863 10.8886C6.34863 10.8699 6.3493 10.8559 6.35064 10.8466L6.3633 10.8506C6.37666 10.8552 6.39113 10.8554 6.40464 10.8513C6.40686 10.8513 6.40863 10.8506 6.40997 10.8493C6.41486 10.8475 6.41819 10.8471 6.41997 10.8479C6.42175 10.8488 6.42219 10.8555 6.4213 10.8679V10.8859C6.41997 10.9159 6.44664 10.9406 6.47997 10.9413C6.5133 10.9419 6.54064 10.9186 6.5413 10.8879C6.54397 10.7826 6.48463 10.7219 6.38663 10.7426C6.32863 10.7253 6.28797 10.7273 6.25664 10.7626C6.2333 10.7893 6.22997 10.8106 6.22797 10.8893C6.23197 11.0226 6.3733 11.1159 6.57797 11.1159C6.6659 11.1112 6.7492 11.075 6.81263 11.0139C6.81842 11.009 6.82308 11.0029 6.8263 10.996C6.82952 10.9891 6.83123 10.9816 6.8313 10.9739V10.7126C6.83118 10.704 6.82899 10.6956 6.82493 10.6881C6.82087 10.6805 6.81505 10.6741 6.80797 10.6693L6.81397 10.6639C6.81935 10.659 6.82366 10.6531 6.82664 10.6464C6.82962 10.6398 6.83121 10.6326 6.8313 10.6253V10.3639C6.8313 10.2519 6.71597 10.2219 6.4813 10.2219C6.34264 10.2219 6.25197 10.2633 6.22797 10.3599C6.21464 10.5253 6.2633 10.6239 6.38397 10.5953C6.41199 10.6046 6.44114 10.6103 6.47064 10.6119Z" fill="#F7FCFF"/>
</g>
</g>
<defs>
<clipPath id="clip0_2612_18">
<rect width="21.34" height="16" fill="white"/>
</clipPath>
</defs>
</svg>
